<?xml version="1.0" encoding="utf-8"?>
<!-- Generator: Adobe Illustrator 16.0.0, SVG Export Plug-In . SVG Version: 6.00 Build 0)  -->
<!DOCTYPE svg PUBLIC "-//W3C//DTD SVG 1.1//EN" "http://www.w3.org/Graphics/SVG/1.1/DTD/svg11.dtd">
<svg version="1.1" id="Layer_1" xmlns="http://www.w3.org/2000/svg" xmlns:xlink="http://www.w3.org/1999/xlink" x="0px" y="0px"
	 width="100px" height="100px" viewBox="0 0 100 100" enable-background="new 0 0 100 100" xml:space="preserve">
<g>
	<path fill="#B6DBE4" d="M50,4c6.212,0,12.235,1.216,17.904,3.613c5.478,2.317,10.397,5.634,14.623,9.86
		c4.226,4.226,7.543,9.146,9.86,14.623C94.784,37.765,96,43.788,96,50s-1.216,12.235-3.613,17.904
		c-2.316,5.477-5.634,10.397-9.86,14.623c-4.226,4.226-9.146,7.543-14.623,9.86C62.235,94.784,56.212,96,50,96
		s-12.235-1.216-17.904-3.613c-5.477-2.316-10.397-5.634-14.623-9.86c-4.226-4.226-7.543-9.146-9.86-14.623
		C5.216,62.235,4,56.212,4,50s1.216-12.235,3.613-17.904c2.316-5.478,5.634-10.397,9.86-14.623c4.226-4.226,9.146-7.543,14.623-9.86
		C37.765,5.216,43.788,4,50,4 M50,0C22.386,0,0,22.386,0,50s22.386,50,50,50s50-22.386,50-50S77.614,0,50,0L50,0z"/>
</g>
<g>
	<g>
		<path fill="#6D6E71" d="M41.91,25.588c0,0-0.142,0-0.422,0c-3.096,0-19.84,0-19.84,0s0,48.683,0,48.824
			c0,0,16.744-40.101,19.84-47.558C41.769,26.01,41.91,25.588,41.91,25.588z"/>
		<path fill="#6D6E71" d="M49.79,44.161c0.141-0.141-6.473,15.196-8.302,19.276c-0.281,0.703-0.423,1.125-0.563,1.125
			c0.281,0,0.423,0,0.563,0c2.955,0,5.91,0,8.865,0c0,0,4.079,9.709,4.079,9.85c1.829,0,3.658,0,5.627,0c0.985,0,1.972,0,2.814,0
			c0.141,0-1.125-2.673-2.814-6.472C56.262,59.075,49.79,44.161,49.79,44.161z"/>
		<path fill="#6D6E71" d="M60.06,25.588h-2.813c0,0,1.126,2.673,2.813,6.613c5.77,13.367,18.292,42.352,18.292,42.211
			c0,0,0-48.683,0-48.824H60.06z"/>
	</g>
</g>
<g>
</g>
<g>
</g>
<g>
</g>
<g>
</g>
<g>
</g>
<g>
</g>
</svg>
