<?xml version="1.0" encoding="utf-8"?>
<!-- Generator: Adobe Illustrator 16.0.0, SVG Export Plug-In . SVG Version: 6.00 Build 0)  -->
<!DOCTYPE svg PUBLIC "-//W3C//DTD SVG 1.1//EN" "http://www.w3.org/Graphics/SVG/1.1/DTD/svg11.dtd">
<svg version="1.1" id="Layer_1" xmlns="http://www.w3.org/2000/svg" xmlns:xlink="http://www.w3.org/1999/xlink" x="0px" y="0px"
	 width="100px" height="100px" viewBox="0 0 100 100" enable-background="new 0 0 100 100" xml:space="preserve">
<g>
	<g>
		<path fill="#B6DBE4" d="M50,4c6.212,0,12.235,1.216,17.904,3.613c5.478,2.317,10.397,5.634,14.623,9.86
			c4.226,4.226,7.543,9.146,9.86,14.623C94.784,37.765,96,43.788,96,50s-1.216,12.235-3.613,17.904
			c-2.316,5.477-5.634,10.397-9.86,14.623c-4.226,4.226-9.146,7.543-14.623,9.86C62.235,94.784,56.212,96,50,96
			s-12.235-1.216-17.904-3.613c-5.477-2.316-10.397-5.634-14.623-9.86c-4.226-4.226-7.543-9.146-9.86-14.623
			C5.216,62.235,4,56.212,4,50s1.216-12.235,3.613-17.904c2.316-5.478,5.634-10.397,9.86-14.623
			c4.226-4.226,9.146-7.543,14.623-9.86C37.765,5.216,43.788,4,50,4 M50,0C22.386,0,0,22.386,0,50s22.386,50,50,50s50-22.386,50-50
			S77.614,0,50,0L50,0z"/>
	</g>
	<g>
		<g>
			<g transform="translate(0.738281, 121.593)">
				<path fill="#6D6E71" d="M14.287-47.22h2.462v-9.723l3.812,8.476c0.45,1.026,1.065,1.389,2.273,1.389
					c1.207,0,1.799-0.363,2.249-1.389l3.812-8.476v9.723h2.462v-9.707c0-0.947-0.378-1.405-1.16-1.642
					c-1.87-0.583-3.125-0.079-3.693,1.184l-3.741,8.365l-3.622-8.365c-0.544-1.263-1.823-1.768-3.693-1.184
					c-0.781,0.237-1.16,0.695-1.16,1.642V-47.22z"/>
			</g>
			<g transform="translate(100.444, 142.416)">
				<path fill="#6D6E71" d="M-66.302-75.958h2.461v5.356c-0.023,0.291,0.094,0.974,1.442,0.995c0.688,0.011,5.311,0,5.354,0v-6.377
					h2.467c0.011,0-0.003,8.697-0.003,8.734c0.014,2.145-2.661,2.611-3.894,2.647h-7.774v-1.656c0.014,0,7.769,0.001,7.788,0
					c1.585-0.168,1.397-0.955,1.397-1.221v-0.646h-5.233c-2.435-0.022-3.985-1.085-4.004-2.308
					C-66.303-70.545-66.248-75.904-66.302-75.958z"/>
			</g>
			<g transform="translate(171.496, 124.557)">
				<path fill="#A7A9AC" d="M-123.732-50.184h7.079c0.829,0,1.634-0.174,2.273-0.474c1.065-0.489,1.586-1.152,1.586-2.021v-1.799
					c0-0.71-0.592-1.374-1.752-1.815c-0.615-0.237-1.373-0.363-2.107-0.363h-2.983c-0.994,0-1.468-0.3-1.586-0.963
					c-0.024-0.079-0.024-0.142-0.024-0.221v-1.121c0-0.063,0-0.126,0.024-0.206c0.118-0.505,0.379-0.647,1.255-0.726
					c0.071,0,0.165-0.016,0.236-0.016h7.032v-1.642h-6.914c-0.994,0-1.515,0.063-1.988,0.205c-1.468,0.458-2.107,1.184-2.107,2.447
					v1.436c0,1.105,1.254,2.052,3.361,2.273c0.237,0.016,0.474,0.031,0.71,0.031h2.557c0.095,0,0.189,0,0.26,0.016
					c0.782,0.063,1.113,0.205,1.35,0.49c0.142,0.142,0.189,0.284,0.189,0.441v1.437c0,0.173-0.118,0.395-0.354,0.584
					c-0.213,0.189-0.568,0.315-1.042,0.347c-0.094,0-0.165,0.016-0.26,0.016h-6.795V-50.184z"/>
			</g>
			<g transform="translate(308.656, 124.557)">
				<path fill="#A7A9AC" d="M-234.595-53.041c0,1.688,1.255,2.636,3.788,2.825c0.237,0.016,0.474,0.032,0.71,0.032h6.416v-1.642
					h-6.463c-1.445,0-1.989-0.363-1.989-1.231v-8.492h-2.462V-53.041z"/>
			</g>
			<g transform="translate(236.74, 124.666)">
				<path fill="#A7A9AC" d="M-176.467-53.064v-5.852c0-1.486,1.044-2.388,3.107-2.673c0.213-0.031,0.451-0.047,0.664-0.047h4.674
					c0.237,0,0.451,0.016,0.688,0.047c2.064,0.285,3.108,1.187,3.108,2.673v5.852c0,1.207-0.443,1.852-1.465,2.272l2.425,2.189
					h-2.858l-1.962-1.771l-1.976,0.125h-2.633c-0.451,0-0.925-0.064-1.447-0.206C-175.708-50.881-176.467-51.704-176.467-53.064z
					 M-173.81-53.207c0,0.079,0.023,0.158,0.047,0.253c0.142,0.68,0.783,1.06,1.755,1.06h2.237l-2.055-1.855h2.859l1.792,1.618
					c0.33-0.176,0.547-0.445,0.624-0.792c0.024-0.079,0.024-0.158,0.024-0.237v-5.615c0-0.063,0-0.142-0.024-0.222
					c-0.143-0.632-0.783-0.996-1.732-0.996h-3.725c-1.091,0-1.803,0.475-1.803,1.217V-53.207z"/>
			</g>
		</g>
		<g>
			<g transform="translate(241.59, -4.64258)">
				<path fill="#6D6E71" d="M-171.845,53.95c-2.559-0.069-4.514,0.169-6.185,0.873c-0.475,0.201-1.232,0.206-1.31,0.801
					c0.261,0.274,0.302,0.683,0.509,1.019c0.398,0.646,1.072,1.511,1.674,1.965c0.656,0.496,1.333,1.026,2.038,1.456
					c1.252,0.764,2.65,1.2,3.856,1.964c0.711,0.451,1.417,1.019,2.11,1.528c0.343,0.251,0.573,0.643,1.019,0.8
					c0-0.024,0-0.048,0-0.072c-0.234-0.298-0.294-0.708-0.509-1.02c-0.315-0.315-0.631-0.63-0.946-0.946
					c-0.925-1.228-2.099-2.306-3.347-3.201c-0.996-0.715-3.223-1.68-3.638-2.838c-0.024-0.024-0.048-0.048-0.073-0.073
					c0.706-0.08,1.532-0.335,2.184-0.509c1.094-0.293,2.071-0.217,3.201-0.509c0.509-0.146,1.019-0.292,1.528-0.438
					c0-0.097,0-0.193,0-0.291c-0.571-0.586-0.978-1.361-1.601-1.892c-1.629-1.388-3.408-2.774-5.239-3.93
					c-1.016-0.641-2.271-1.057-3.348-1.601c-0.362-0.183-0.998-0.278-1.237-0.583c-0.565-0.721-0.874-1.634-1.309-2.474
					c-0.914-1.759-1.811-3.68-2.62-5.53c-0.552-1.262-0.912-2.506-1.601-3.639c-3.304-5.432-6.86-8.71-12.369-11.933
					c-1.173-0.686-2.584-0.957-4.076-1.31c-0.8-0.049-1.601-0.098-2.401-0.146c-0.489-0.204-0.997-0.802-1.456-1.091
					c-1.825-1.153-6.506-3.661-7.858-0.364c-0.854,2.082,1.275,4.112,2.037,5.167c0.535,0.739,1.219,1.569,1.601,2.401
					c0.251,0.547,0.294,1.095,0.51,1.673c0.529,1.425,0.989,2.976,1.673,4.293c0.346,0.666,0.727,1.369,1.165,1.964
					c0.268,0.366,0.728,0.527,0.8,1.091c-0.449,0.629-0.475,1.605-0.728,2.401c-1.137,3.586-0.708,8.042,0.946,10.697
					c0.507,0.815,1.703,2.562,3.347,1.892c1.438-0.585,1.117-2.401,1.528-4.002c0.093-0.363,0.036-0.63,0.218-0.873
					c0,0.024,0,0.048,0,0.073c0.437,0.873,0.873,1.746,1.311,2.619c0.969,1.561,2.689,3.192,4.147,4.293
					c0.756,0.571,1.351,1.558,2.328,1.892c0-0.024,0-0.048,0-0.073c-0.024,0-0.048,0-0.072,0c-0.189-0.295-0.486-0.417-0.728-0.655
					c-0.57-0.559-1.203-1.252-1.674-1.892c-1.326-1.8-2.497-3.771-3.564-5.822c-0.51-0.979-0.954-2.059-1.383-3.056
					c-0.166-0.384-0.164-0.965-0.509-1.165c-0.471,0.73-1.164,1.321-1.528,2.184c-0.583,1.378-0.657,3.059-0.874,4.802
					c-0.127,0.045-0.07,0.014-0.145,0.072c-1.014-0.244-1.37-1.288-1.747-2.182c-0.953-2.264-1.129-5.909-0.291-8.514
					c0.217-0.674,1.197-2.797,0.8-3.419c-0.189-0.622-0.814-0.981-1.164-1.456c-0.433-0.587-0.865-1.36-1.165-2.038
					c-0.78-1.765-1.144-3.746-1.964-5.53c-0.393-0.853-1.056-1.716-1.601-2.474c-0.604-0.84-1.279-1.458-1.747-2.474
					c-0.167-0.361-0.392-0.939-0.146-1.31c0.079-0.25,0.189-0.355,0.437-0.437c0.422-0.325,1.597,0.108,2.037,0.291
					c1.167,0.485,2.141,0.946,3.129,1.601c0.474,0.315,0.954,0.924,1.528,1.092c0.218,0,0.437,0,0.654,0
					c1.025,0.236,2.172,0.073,3.129,0.364c1.691,0.514,3.208,1.314,4.584,2.183c4.194,2.648,7.623,6.418,9.968,10.915
					c0.377,0.724,0.541,1.415,0.874,2.183c0.67,1.549,1.515,3.142,2.182,4.657c0.667,1.511,1.315,3.036,2.256,4.293
					c0.495,0.661,2.406,1.016,3.274,1.382c0.608,0.257,1.606,0.525,2.183,0.873c1.102,0.665,2.169,1.456,3.202,2.183
					C-173.511,52.495-171.924,53.292-171.845,53.95z"/>
			</g>
			<g transform="translate(272.504, 24.8027)">
				<path fill="#6D6E71" d="M-235.284-3.219c-0.534-0.01-0.911,0.059-1.311,0.146c0,0.024,0,0.049,0,0.073c0.025,0,0.049,0,0.073,0
					c0.254,0.522,0.704,0.859,1.019,1.31c0.242,0.509,0.485,1.019,0.728,1.528c0.023-0.024,0.048-0.048,0.072-0.073
					c0.451-0.317,0.657-0.826,0.655-1.601c-0.181-0.19-0.207-0.428-0.363-0.655C-234.62-2.793-235.022-2.964-235.284-3.219z"/>
			</g>
		</g>
	</g>
</g>
<g>
</g>
<g>
</g>
<g>
</g>
<g>
</g>
<g>
</g>
<g>
</g>
</svg>
