<?xml version="1.0" encoding="utf-8"?>
<!-- Generator: Adobe Illustrator 16.0.0, SVG Export Plug-In . SVG Version: 6.00 Build 0)  -->
<!DOCTYPE svg PUBLIC "-//W3C//DTD SVG 1.1//EN" "http://www.w3.org/Graphics/SVG/1.1/DTD/svg11.dtd">
<svg version="1.1" id="Layer_1" xmlns="http://www.w3.org/2000/svg" xmlns:xlink="http://www.w3.org/1999/xlink" x="0px" y="0px"
	 width="100px" height="100px" viewBox="0 0 100 100" enable-background="new 0 0 100 100" xml:space="preserve">
<g>
	<g>
		<path fill="#B6DBE4" d="M50,4c6.212,0,12.235,1.216,17.904,3.613c5.478,2.317,10.397,5.634,14.623,9.86
			c4.226,4.226,7.543,9.146,9.86,14.623C94.784,37.765,96,43.788,96,50s-1.216,12.235-3.613,17.904
			c-2.316,5.477-5.634,10.397-9.86,14.623c-4.226,4.226-9.146,7.543-14.623,9.86C62.235,94.784,56.212,96,50,96
			s-12.235-1.216-17.904-3.613c-5.477-2.316-10.397-5.634-14.623-9.86c-4.226-4.226-7.543-9.146-9.86-14.623
			C5.216,62.235,4,56.212,4,50s1.216-12.235,3.613-17.904c2.316-5.478,5.634-10.397,9.86-14.623
			c4.226-4.226,9.146-7.543,14.623-9.86C37.765,5.216,43.788,4,50,4 M50,0C22.386,0,0,22.386,0,50s22.386,50,50,50s50-22.386,50-50
			S77.614,0,50,0L50,0z"/>
	</g>
	<g>
		<path fill="#6D6E71" d="M15.972,49.999c0,13.469,7.826,25.11,19.178,30.625L18.917,36.15
			C17.03,40.381,15.972,45.065,15.972,49.999z"/>
		<path fill="#6D6E71" d="M72.97,48.282c0-4.207-1.511-7.118-2.805-9.385c-1.724-2.805-3.342-5.176-3.342-7.98
			c0-3.127,2.373-6.04,5.714-6.04c0.151,0,0.295,0.019,0.441,0.028C66.924,19.358,58.859,15.97,50,15.97
			c-11.889,0-22.347,6.101-28.432,15.338c0.799,0.025,1.552,0.041,2.19,0.041c3.558,0,9.069-0.432,9.069-0.432
			c1.833-0.108,2.051,2.587,0.217,2.804c0,0-1.844,0.215-3.895,0.323l12.392,36.859l7.447-22.333l-5.301-14.526
			c-1.834-0.108-3.57-0.323-3.57-0.323c-1.833-0.108-1.618-2.912,0.216-2.804c0,0,5.619,0.432,8.963,0.432
			c3.557,0,9.069-0.432,9.069-0.432c1.833-0.108,2.05,2.587,0.216,2.804c0,0-1.846,0.215-3.894,0.323l12.297,36.579l3.394-11.34
			C71.851,54.574,72.97,51.194,72.97,48.282z"/>
		<path fill="#6D6E71" d="M50.598,52.975l-10.21,29.668C43.436,83.54,46.66,84.03,50,84.03c3.962,0,7.763-0.685,11.3-1.93
			c-0.091-0.146-0.175-0.301-0.245-0.469L50.598,52.975z"/>
		<path fill="#6D6E71" d="M79.859,33.673c0.146,1.084,0.229,2.247,0.229,3.5c0,3.451-0.647,7.333-2.588,12.188l-10.393,30.05
			c10.116-5.898,16.92-16.858,16.92-29.413C84.028,44.083,82.515,38.521,79.859,33.673z"/>
		<path fill="#6D6E71" d="M50,10.333c-21.873,0-39.667,17.793-39.667,39.666c0,21.874,17.794,39.668,39.667,39.668
			c21.872,0,39.667-17.795,39.667-39.668C89.667,28.126,71.872,10.333,50,10.333z M50,87.848c-20.87,0-37.848-16.979-37.848-37.85
			c0-20.869,16.978-37.847,37.848-37.847c20.869,0,37.848,16.978,37.848,37.847C87.848,70.869,70.869,87.848,50,87.848z"/>
	</g>
</g>
<g>
</g>
<g>
</g>
<g>
</g>
<g>
</g>
<g>
</g>
<g>
</g>
</svg>
