<svg xmlns="http://www.w3.org/2000/svg" width="100" height="100"><switch><g><path fill="#6D6E71" d="M26.845 48.453c-.098 0 1.07 2.512 1.103 2.512 2.549 4.625 7.463 7.502 15.751 8.295-1.184.897-2.604 2.603-2.802 4.572-1.487.96-4.478 1.277-6.803.545-3.259-1.029-4.506-7.477-9.385-6.558-1.056.197-.846.896.067 1.487 1.487.961 2.887 2.165 3.965 4.727.83 1.965 2.574 5.48 8.087 5.48 2.185 0 3.719-.265 3.719-.265s.041 5.021.041 6.973c0 2.254-3.04 2.887-3.04 3.97 0 .429 1.007.47 1.814.47 1.597 0 4.922-1.335 4.922-3.675 0-1.857.03-8.109.03-9.202 0-2.39 1.282-3.147 1.282-3.147s.159 12.761-.305 14.472c-.545 2.011-1.532 1.726-1.532 2.623 0 1.336 4.004.325 5.33-2.603 1.026-2.28.576-14.799.576-14.799l1.095-.022s.062 5.729.024 8.352c-.039 2.712-.224 6.143 1.388 7.76 1.06 1.063 4.492 2.932 4.492 1.225 0-.991-1.882-1.805-1.882-4.486V64.813c1.503 0 1.277 4.059 1.277 4.059l.108 7.542s-.33 2.748 2.976 3.896c1.166.409 3.658.52 3.776-.164.118-.686-3.003-1.705-3.031-3.833-.021-1.298.057-2.056.057-7.694 0-5.643-.757-7.726-3.399-9.388 8.148-.834 13.193-2.853 15.651-8.246.191.004 1.001-2.521.896-2.521.551-2.037.853-4.447.907-7.3-.015-7.741-3.719-10.478-4.429-11.762 1.047-5.861-.178-8.524-.747-9.44-2.1-.747-7.304 1.92-10.148 3.798-4.634-1.353-14.435-1.225-18.109.35C33.787 19.256 30.2 20 30.2 20s-2.319 4.152-.612 10.229c-2.232 2.844-3.894 4.854-3.894 10.183.002 3.008.356 5.695 1.151 8.041z"/><path fill="#B6DAE3" d="M50 4c6.212 0 12.235 1.216 17.904 3.613a45.87 45.87 0 0 1 14.623 9.86 45.84 45.84 0 0 1 9.859 14.623C94.784 37.765 96 43.788 96 50a45.852 45.852 0 0 1-13.472 32.527A45.854 45.854 0 0 1 50 96a45.737 45.737 0 0 1-17.904-3.613 45.86 45.86 0 0 1-14.623-9.86 45.866 45.866 0 0 1-9.86-14.622A45.731 45.731 0 0 1 4 50c0-6.212 1.216-12.235 3.613-17.904a45.832 45.832 0 0 1 9.86-14.623 45.86 45.86 0 0 1 14.623-9.86C37.765 5.216 43.788 4 50 4m0-4C22.386 0 0 22.386 0 50s22.386 50 50 50 50-22.387 50-50c0-27.614-22.386-50-50-50z"/></g></switch></svg>