<?xml version="1.0" encoding="utf-8"?>
<!-- Generator: Adobe Illustrator 16.0.0, SVG Export Plug-In . SVG Version: 6.00 Build 0)  -->
<!DOCTYPE svg PUBLIC "-//W3C//DTD SVG 1.1//EN" "http://www.w3.org/Graphics/SVG/1.1/DTD/svg11.dtd">
<svg version="1.1" id="Layer_1" xmlns="http://www.w3.org/2000/svg" xmlns:xlink="http://www.w3.org/1999/xlink" x="0px" y="0px"
	 width="500px" height="500px" viewBox="0 0 500 500" enable-background="new 0 0 500 500" xml:space="preserve">
<g>
	<g>
		<path fill="#B6DBE4" d="M250,20c31.059,0,61.178,6.079,89.52,18.066c27.386,11.583,51.985,28.17,73.115,49.299
			c21.129,21.129,37.716,45.729,49.299,73.114C473.922,188.823,480,218.941,480,250s-6.078,61.178-18.066,89.521
			c-11.583,27.386-28.17,51.985-49.299,73.114c-21.129,21.129-45.729,37.716-73.114,49.299C311.178,473.922,281.059,480,250,480
			s-61.178-6.078-89.521-18.066c-27.386-11.583-51.985-28.17-73.114-49.299c-21.129-21.129-37.716-45.729-49.299-73.114
			C26.078,311.178,20,281.059,20,250s6.078-61.177,18.066-89.52c11.583-27.386,28.17-51.985,49.299-73.114
			c21.129-21.129,45.729-37.716,73.115-49.299C188.822,26.079,218.941,20,250,20 M250,0C111.929,0,0,111.93,0,250
			c0,138.072,111.929,250,250,250s250-111.928,250-250C500,111.93,388.071,0,250,0L250,0z"/>
	</g>
	<g>
		<path fill="#6D6E71" d="M261.533,132.298c-0.312,0-0.565,0.134-0.864,0.164c-0.165,0.018-0.309-0.03-0.478-0.006
			c-0.242,0.034-0.4,0.167-0.63,0.216c-0.579,0.144-1.148,0.305-1.672,0.572c-0.59,0.274-1.097,0.645-1.567,1.063
			c-0.161,0.141-0.363,0.195-0.518,0.35c-0.158,0.157-0.208,0.356-0.349,0.518c-0.144,0.185-0.357,0.281-0.483,0.482
			l-83.558,116.238l-83.89-116.238c-3.15-4.263-6.967-4.938-11.458-2.021l-0.671,0.675c-2.249,1.573-3.369,3.705-3.369,6.402
			v218.325c0,2.248,0.839,4.156,2.526,5.727c1.683,1.572,3.646,2.357,5.895,2.357c2.245,0,4.154-0.785,5.727-2.357
			c1.57-1.57,2.362-3.479,2.362-5.727v-193.73l75.47,104.443c1.566,2.475,3.924,3.705,7.074,3.705h0.675
			c2.917,0,5.161-1.23,6.738-3.705l75.47-104.779l0,0l23.532-32.673H261.533z"/>
		<path fill="#A7A9AC" d="M425.616,134.656c-1.578-1.566-3.486-2.358-5.731-2.358H277.494l-23.532,32.673v194.066
			c0,2.248,0.785,4.156,2.358,5.727c1.57,1.572,3.478,2.357,5.727,2.357c2.242,0,4.155-0.785,5.728-2.357
			c1.57-1.57,2.358-3.479,2.358-5.727V148.808h62.494v211.251c0,2.248,0.785,4.156,2.358,5.725c1.565,1.574,3.478,2.359,5.726,2.359
			c2.242,0,4.154-0.785,5.727-2.359c1.57-1.568,2.358-3.477,2.358-5.725V148.808h71.09c2.245,0,4.153-0.844,5.731-2.526
			c1.565-1.686,2.358-3.65,2.358-5.898C427.974,138.142,427.181,136.232,425.616,134.656z"/>
	</g>
</g>
<g>
</g>
<g>
</g>
<g>
</g>
<g>
</g>
<g>
</g>
<g>
</g>
</svg>
