<svg xmlns="http://www.w3.org/2000/svg" width="100" height="100"><switch><g><path fill="#A7A9AC" d="M58.01 72.889l-25.148.011-.002-5.27 25.148-.011zM65.41 19.651l4.297 24.305 5.294-.904-4.297-24.302zM58.613 60.864l-25.039-2.262-.488 5.247 25.037 2.262zM60.268 53.989l-24.283-6.404-1.393 5.089 24.277 6.404zM63.437 47.963l-21.658-12.53-2.732 4.535L60.711 52.5zM50.142 26.861l14.17 20.38 4.437-2.968-14.168-20.382z"/><path fill="#6D6E71" d="M62.279 77.098H29.298V55.557h-4.297v25.671h.045c0 .022 1.253.022 1.253.022h40.236v-.022c.041 0 .041-1.229.041-1.229V55.557h-4.297v21.541z"/><g><path fill="#B7DAE3" d="M50 4c6.212 0 12.235 1.216 17.904 3.613a45.87 45.87 0 0 1 14.623 9.86 45.84 45.84 0 0 1 9.859 14.623C94.784 37.765 96 43.788 96 50a45.726 45.726 0 0 1-3.613 17.904 45.868 45.868 0 0 1-9.859 14.623A45.868 45.868 0 0 1 50 96a45.737 45.737 0 0 1-17.904-3.613 45.873 45.873 0 0 1-14.623-9.859 45.87 45.87 0 0 1-9.86-14.623A45.735 45.735 0 0 1 4 50c0-6.212 1.216-12.235 3.613-17.904a45.832 45.832 0 0 1 9.86-14.623 45.86 45.86 0 0 1 14.623-9.86C37.765 5.216 43.788 4 50 4m0-4C22.386 0 0 22.386 0 50c0 27.613 22.386 50 50 50s50-22.387 50-50c0-27.614-22.386-50-50-50z"/></g></g></switch></svg>