<?xml version="1.0" encoding="utf-8"?>
<!-- Generator: Adobe Illustrator 16.0.0, SVG Export Plug-In . SVG Version: 6.00 Build 0)  -->
<!DOCTYPE svg PUBLIC "-//W3C//DTD SVG 1.1//EN" "http://www.w3.org/Graphics/SVG/1.1/DTD/svg11.dtd">
<svg version="1.1" id="Layer_1" xmlns="http://www.w3.org/2000/svg" xmlns:xlink="http://www.w3.org/1999/xlink" x="0px" y="0px"
	 width="100px" height="100px" viewBox="0 0 100 100" enable-background="new 0 0 100 100" xml:space="preserve">
<g>
	<path fill="#B6DBE4" d="M50,4c6.212,0,12.235,1.216,17.904,3.613c5.478,2.317,10.397,5.634,14.623,9.86
		c4.226,4.226,7.543,9.146,9.86,14.623C94.784,37.765,96,43.788,96,50s-1.216,12.235-3.613,17.904
		c-2.316,5.477-5.634,10.397-9.86,14.623c-4.226,4.226-9.146,7.543-14.623,9.86C62.235,94.784,56.212,96,50,96
		s-12.235-1.216-17.904-3.613c-5.477-2.316-10.397-5.634-14.623-9.86c-4.226-4.226-7.543-9.146-9.86-14.623
		C5.216,62.235,4,56.212,4,50s1.216-12.235,3.613-17.904c2.316-5.478,5.634-10.397,9.86-14.623c4.226-4.226,9.146-7.543,14.623-9.86
		C37.765,5.216,43.788,4,50,4 M50,0C22.386,0,0,22.386,0,50s22.386,50,50,50s50-22.386,50-50S77.614,0,50,0L50,0z"/>
</g>
<g>
	<path fill="#999999" d="M37.699,21.26c-1.461,0.086-2.061,0.917-2.137,1.034c-0.007,0.01-0.01,0.015-0.009,0.014l0,0L19.855,59.62
		c-0.01,0.036-0.025,0.082-0.046,0.142c-0.35,0.939-0.283,1.728,0.009,2.366l0.176,0.325c0.679,1.08,2.014,1.635,2.81,1.637
		c0.613,0,5.447,0,11.36,0l11.916-28.044c-3.017-7.145-5.287-12.487-5.614-13.175C39.823,21.518,38.52,21.211,37.699,21.26z"/>
	<path fill="#C9C9C9" d="M22.804,64.089c-0.796-0.002-2.131-0.557-2.81-1.637l4.431,8.2l3.589,6.642
		c0.793,1.422,2.785,1.582,2.785,1.582c2.063,0.139,5.88-1.777,6.632-2.21c0.726-0.419,18.108-11.145,20.434-12.577
		c-2.449,0-14.409,0-23.701,0C28.251,64.089,23.417,64.089,22.804,64.089z"/>
	<path d="M19.994,62.452l-0.176-0.325C19.871,62.241,19.93,62.349,19.994,62.452z"/>
	<polygon points="35.552,22.309 35.552,22.308 35.552,22.308 	"/>
	<polygon points="35.552,22.308 35.552,22.308 35.552,22.308 	"/>
	<path d="M35.562,22.294c-0.004,0.004-0.007,0.01-0.009,0.014l0,0C35.552,22.309,35.555,22.304,35.562,22.294z"/>
	<path fill="#6D6E71" d="M56.625,22.523c0,0-0.438-1.444-2.415-1.437c0,0-2.744-0.009-5.999-0.016
		c-4.59-0.009-10.199-0.015-10.576,0.018c-0.985,0.085-1.788,0.745-2.073,1.206c0.077-0.117,0.676-0.948,2.137-1.034
		c0.821-0.049,2.125,0.258,2.768,1.609c0.327,0.688,2.597,6.03,5.614,13.175c6.585,15.587,16.731,39.754,18.048,42.892h16.299
		L56.625,22.523z"/>
</g>
<g>
</g>
<g>
</g>
<g>
</g>
<g>
</g>
<g>
</g>
<g>
</g>
</svg>
