<?xml version="1.0" encoding="utf-8"?>
<!-- Generator: Adobe Illustrator 16.0.0, SVG Export Plug-In . SVG Version: 6.00 Build 0)  -->
<!DOCTYPE svg PUBLIC "-//W3C//DTD SVG 1.1//EN" "http://www.w3.org/Graphics/SVG/1.1/DTD/svg11.dtd">
<svg version="1.1" id="Layer_1" xmlns="http://www.w3.org/2000/svg" xmlns:xlink="http://www.w3.org/1999/xlink" x="0px" y="0px"
	 width="100px" height="100px" viewBox="0 0 100 100" enable-background="new 0 0 100 100" xml:space="preserve">
<g>
	<g>
		<path fill="#B6DBE4" d="M50,4c6.212,0,12.235,1.216,17.904,3.613c5.478,2.317,10.397,5.634,14.623,9.86
			c4.226,4.226,7.543,9.146,9.86,14.623C94.784,37.765,96,43.788,96,50s-1.216,12.235-3.613,17.904
			c-2.316,5.477-5.634,10.397-9.86,14.623c-4.226,4.226-9.146,7.543-14.623,9.86C62.235,94.784,56.212,96,50,96
			s-12.235-1.216-17.904-3.613c-5.477-2.316-10.397-5.634-14.623-9.86c-4.226-4.226-7.543-9.146-9.86-14.623
			C5.216,62.235,4,56.212,4,50s1.216-12.235,3.613-17.904c2.316-5.478,5.634-10.397,9.86-14.623
			c4.226-4.226,9.146-7.543,14.623-9.86C37.765,5.216,43.788,4,50,4 M50,0C22.386,0,0,22.386,0,50s22.386,50,50,50s50-22.386,50-50
			S77.614,0,50,0L50,0z"/>
	</g>
	<g>
		<path fill-rule="evenodd" clip-rule="evenodd" fill="#6D6E71" d="M49.67,15.938c3.566-0.521,6.421,1.517,7.915,3.078
			c1.758,1.836,2.684,4.1,3.083,6.511c0.427,2.578,0.544,5.212,0.731,7.827c0.18,2.516,0.826,4.814,2.306,6.931
			c2.397,3.443,4.651,6.988,6.949,10.5c2.454,3.743,3.129,7.793,2.119,12.157c-0.099,0.428,0.152,0.958,0.301,1.42
			c0.328,1.017,0.914,2.001,0.992,3.033c0.142,1.861,1.017,3.026,2.595,3.899c0.785,0.434,1.149,0.887,1.844,1.481
			c0.273,0.311,0.833,0.833,0.26,1.616c-1.084,0.876-2.087,1.889-3.273,2.595c-3.154,1.872-6.409,3.532-9.216,5.975
			c-2.236,1.946-5.611,1.402-7.097-0.946c-0.435-0.682-0.95-0.939-1.678-1.084c-4.598-0.894-9.172-0.696-13.731,0.24
			c-0.383,0.078-0.799,0.382-1.038,0.699c-1.114,1.494-2.599,1.974-4.361,1.66c-0.953-0.169-1.905-0.417-2.817-0.738
			c-3.464-1.222-6.925-2.405-10.613-2.814c-1.478-0.163-2.83-0.598-3.778-1.915c-0.103-0.271-0.283-0.451-0.085-1.192
			c0.921-2.07,1.354-4.149,0.626-6.42c-0.471-1.473,0.177-2.454,1.651-2.931c0.676-0.216,1.43-0.258,2.049-0.572
			c1.012-0.515,2.161-0.999,2.858-1.829c1.138-1.349,2.47-2.733,1.95-4.862c-0.131-0.54,0.222-1.236,0.448-1.822
			c0.361-0.943,0.918-1.822,1.193-2.787c1.593-5.568,4.411-10.454,8.042-14.931c0.59-0.728,0.883-1.811,1.008-2.772
			c0.182-1.365,0.129-2.767,0.09-4.149c-0.08-2.811-0.351-5.621-0.292-8.427C40.701,25.369,41.087,17.191,49.67,15.938z
			 M62.888,63.349c0.625-2.934,0.896-5.766,0.152-8.584c-1.603-6.045-4.238-11.681-6.942-17.29
			c-0.452-0.936-1.052-0.924-1.822-0.508c-1.716,0.927-3.457,1.808-5.134,2.798c-1.621,0.959-3.075,0.724-4.472-0.386
			c-0.717-0.57-1.395-1.188-2.156-1.84c-0.148,2.555-0.932,4.727-2.373,6.695c-0.543,0.741-0.894,1.64-1.252,2.5
			c-0.925,2.209-1.857,4.419-2.685,6.666c-0.606,1.638-1.226,3.308-1.529,5.021c-0.514,2.917,0.346,5.382,2.881,7.182
			c1.436,1.017,2.777,2.179,4.091,3.355c1.959,1.759,1.812,3.171-0.46,4.523c0.716,0.833,1.384,1.695,2.152,2.454
			c0.36,0.353,0.913,0.71,1.385,0.721c1.869,0.042,3.745,0.01,5.611-0.11c3.617-0.233,6.473-2.006,8.821-4.644
			c0.378-0.427,0.6-1.105,0.65-1.688c0.148-1.716,0.152-3.446,0.254-5.169c0.081-1.355,0.477-1.695,1.833-1.695
			C62.189,63.345,62.485,63.349,62.888,63.349z M38.576,81.789c0.456-0.208,0.972-0.339,1.356-0.64
			c1.988-1.554,2.087-3.273,0.491-5.593c-1.826-2.652-3.568-5.364-5.37-8.033c-0.48-0.709-0.987-1.419-1.578-2.038
			c-1.681-1.766-2.382-1.698-3.42,0.484c-0.701,1.476-1.775,2.246-3.319,2.528c-0.587,0.105-1.155,0.321-1.739,0.445
			c-1.024,0.215-1.391,0.872-1.148,1.819c0.419,1.631,0.18,3.181-0.304,4.756c-0.554,1.804-0.316,2.2,1.56,2.489
			c3.421,0.533,6.739,1.388,9.933,2.75C36.127,81.223,37.326,81.435,38.576,81.789z M63.149,65.485
			c-1.095-0.12-1.141,0.576-1.091,1.286c0.201,2.856,0.134,5.685-0.484,8.506c-0.272,1.229-0.459,2.532-0.371,3.779
			c0.174,2.362,1.95,3.315,4.04,2.27c0.66-0.332,1.239-0.833,1.861-1.253c1.911-1.307,3.803-2.638,5.738-3.902
			c0.939-0.611,1.98-1.066,2.941-1.646c0.989-0.6,0.979-1.056,0.032-1.758c-0.24-0.18-0.483-0.375-0.755-0.491
			c-1.847-0.783-2.584-2.249-2.698-4.173c-0.035-0.607-0.296-1.204-0.455-1.804c-0.113-0.011-0.227-0.025-0.339-0.036
			c-0.943,2.221-2.723,3.167-4.961,3.383c-1.797,0.173-2.874-0.643-3.206-2.401C63.29,66.664,63.23,66.071,63.149,65.485z
			 M47.669,38.809c0.116-0.035,0.423-0.077,0.679-0.217c1.809-0.989,3.625-1.969,5.397-3.015c0.685-0.405,0.622-1.102-0.215-1.45
			c-1.854-0.773-3.771-1.404-5.663-2.092c-1.27,0.838-2.539,1.676-3.803,2.52c-0.217,0.147-0.464,0.297-0.593,0.508
			c-0.119,0.193-0.177,0.496-0.115,0.708C43.656,36.772,46.482,38.825,47.669,38.809z M51.027,31.308
			c0-0.616-0.071-1.179,0.017-1.718c0.146-0.885,0.639-1.582,1.607-1.578c0.911,0.003,1.507,0.667,1.535,1.502
			c0.032,0.936-0.236,1.882-0.395,2.971c0.148-0.049,0.625-0.069,0.875-0.316c1.098-1.079,1.374-2.447,1.144-3.928
			c-0.286-1.836-1.73-3.216-3.263-3.146c-1.543,0.073-2.908,1.545-3.087,3.348c-0.034,0.333-0.018,0.673-0.022,1.008
			C49.431,30.465,49.784,31.196,51.027,31.308z M44.305,32.4c-1.26-0.731-1.878-1.886-1.523-3.067
			c0.133-0.439,0.568-1.063,0.915-1.097c0.427-0.041,1.114,0.337,1.315,0.728c0.344,0.662,0.398,1.474,0.619,2.419
			c0.385-0.428,1.002-0.805,1.111-1.296c0.265-1.204-0.051-2.387-0.779-3.406c-0.735-1.033-1.889-1.236-2.842-0.521
			c-2.023,1.514-1.766,6.142,0.46,6.901C43.808,32.856,44.049,32.633,44.305,32.4z"/>
	</g>
</g>
<g>
</g>
<g>
</g>
<g>
</g>
<g>
</g>
<g>
</g>
<g>
</g>
</svg>
