<svg xmlns="http://www.w3.org/2000/svg" width="100" height="100"><switch><g><g fill="#6D6E71"><path d="M20.842 39.28h13.607v38.879H20.842zM27.645 33.448a6.809 6.809 0 0 0 6.804-6.804 6.807 6.807 0 0 0-6.804-6.804 6.802 6.802 0 0 0-6.803 6.804 6.803 6.803 0 0 0 6.803 6.804zM79.158 56.793c0-10.49-2.263-17.513-14.492-17.513-5.877 0-9.821 2.183-11.436 5.247h-.167V39.28H42.225v38.879h11.329v-19.27c0-5.082.961-10.002 7.248-10.002 6.192 0 6.693 5.811 6.693 10.328v18.944h11.663V56.793z"/></g><path fill="#B7DAE3" d="M50 4c6.212 0 12.235 1.216 17.904 3.613a45.87 45.87 0 0 1 14.623 9.86 45.84 45.84 0 0 1 9.859 14.623C94.784 37.765 96 43.788 96 50a45.726 45.726 0 0 1-3.613 17.904 45.868 45.868 0 0 1-9.859 14.623A45.868 45.868 0 0 1 50 96a45.737 45.737 0 0 1-17.904-3.613 45.873 45.873 0 0 1-14.623-9.859 45.87 45.87 0 0 1-9.86-14.623A45.735 45.735 0 0 1 4 50c0-6.212 1.216-12.235 3.613-17.904a45.832 45.832 0 0 1 9.86-14.623 45.86 45.86 0 0 1 14.623-9.86C37.765 5.216 43.788 4 50 4m0-4C22.386 0 0 22.386 0 50c0 27.613 22.386 50 50 50s50-22.387 50-50c0-27.614-22.386-50-50-50z"/></g></switch></svg>