<svg xmlns="http://www.w3.org/2000/svg" width="100" height="100"><switch><g><path fill="#6D6E71" d="M80.525 27.922a25.933 25.933 0 0 1-8.146 3.065A12.887 12.887 0 0 0 63.021 27c-7.079 0-12.82 5.651-12.82 12.624 0 .988.114 1.949.33 2.875-10.656-.527-20.104-5.551-26.429-13.188a12.425 12.425 0 0 0-1.737 6.349c0 4.376 2.268 8.239 5.706 10.502a12.925 12.925 0 0 1-5.809-1.577v.159c0 6.113 4.421 11.216 10.288 12.377a13.027 13.027 0 0 1-5.794.217c1.636 5.014 6.368 8.663 11.979 8.765-4.39 3.386-9.915 5.404-15.927 5.404-1.038 0-2.055-.062-3.06-.178A36.729 36.729 0 0 0 39.407 77c23.586 0 36.479-19.232 36.479-35.913 0-.545-.008-1.093-.032-1.634a25.795 25.795 0 0 0 6.396-6.535 25.893 25.893 0 0 1-7.365 1.988c2.65-1.562 4.68-4.035 5.64-6.984z"/><path fill="#B7DAE3" d="M50 4c6.212 0 12.235 1.216 17.904 3.613a45.87 45.87 0 0 1 14.623 9.86 45.84 45.84 0 0 1 9.859 14.623C94.784 37.765 96 43.788 96 50a45.726 45.726 0 0 1-3.613 17.904 45.868 45.868 0 0 1-9.859 14.623A45.868 45.868 0 0 1 50 96a45.737 45.737 0 0 1-17.904-3.613 45.873 45.873 0 0 1-14.623-9.859 45.87 45.87 0 0 1-9.86-14.623A45.735 45.735 0 0 1 4 50c0-6.212 1.216-12.235 3.613-17.904a45.832 45.832 0 0 1 9.86-14.623 45.86 45.86 0 0 1 14.623-9.86C37.765 5.216 43.788 4 50 4m0-4C22.386 0 0 22.386 0 50c0 27.613 22.386 50 50 50s50-22.387 50-50c0-27.614-22.386-50-50-50z"/></g></switch></svg>