<svg xmlns="http://www.w3.org/2000/svg" viewBox="0 0 822 318"><defs><style>.a{fill:#dff0f5;}.b{fill:#cae4eb;}.c{fill:#b8d3db;}.c,.g,.h{fill-rule:evenodd;}.d{fill:#e9f2f5;}.e,.h{fill:#93b3bd;}.f,.g{fill:#839fa8;}</style></defs><title>Mountains</title><path class="a" d="M792,140.74c-2.37.49-5.07,2.24-8,.28-2.88-.61-5.94,3.56-9-1.73-2.27-2-3.37-.23-4.47-2.79-1.1.07-2.21-2.26-4.53-3-1.91-3.12-3.57-1.3-5.29-1.66-1.72-.63-3.5,1.25-5.68-.48-2.18,1.53-4.75.27-8-.78-1.54.88-3.2-3.26-5.17-1-2-.54-4.25-2.6-7-1.9-2.74-.79-6-3-9.83-2.89-3.71-1.43-6.31-1.46-8.35-2.58-2-2.15-3.49-.23-4.92-1.5-1.43-.63-2.83-.29-4.73-1-4.16-1.56-6.29,1.8-8.31-.76-2,1.27-3.94-.12-7.69-.7-3.54-1.61-6-2.26-8-2.1-2,.41-3.67-2.91-5.6-2.13-1.93-1.28-4.16.35-7.38-1.6-1.62-.32-3.33,1.65-5.52-.25-2.2.36-4.89,1.11-8.48.25-6.2,1.65-10-1.27-12.51,1.17-2.48.43-3.63,1-4.49,1.74-1.32,2.77-1.69,3.13-2,2.27-.35-1.53-.69.91-2,2.11-1.88,1.61-3.74,3.46-6.45,1.58-2.71.66-6.27,2.56-11.55.6-2.62,2.7-4.68,3.57-6.56.8-1.88,2.9-3.57,2.69-5.44,1.39-3,.84-5.38.63-7.22,3.62-1.84,1.87-3.1,3.25-3.78,2.94-1.77-1.18-2.38,2.92-3,3.37-.61,1.19-1.22,0-3,3.19a23.58,23.58,0,0,0-3.45,2.31c-1.22.63-2.78,1.71-5.55,3.52-.39,1.47-1-2.48-2,1.44-1-2-2.27,2.15-4,2.94-2.69.67-4,4.37-4.79,3.53-.75.63-.9,1.36-1.21.84-1.09.95-2.3.44-4.27,1.82-2-.66-4.66,1.87-8.73,1.82-4.44.38-7.59,1.42-10.11,1.25-2.53,1.83-4.42,1.34-6.35.47s-3.89.71-6.54,1.2c-3.12-.43-4.45,2.56-5.71,2-1.26,1.07-2.46.68-5.29,1.65-2.8,2.33-5.5-.14-8,1-2.47.43-4.71-.49-6.59,0-1.88.36-3.4,1.8-4.44-.34a25.8,25.8,0,0,0-6-1c-1.6,1.5-3.37-1.09-7-1.19-3.92.14-7.36-1.54-10-.73-2.62.32-4.41.7-5,0-2.68,2.18-4.08-.25-6.23.59-2.16-.28-5.07,0-10.77,1.59a19.54,19.54,0,0,1-11.18,1.22c-2.77.17-4.72-.16-6.22.12-1.51,1.41-2.58.13-3.6-.61-1.9.79-2.68-.49-3.59-1.52-.91.6-2-.45-4.41-2.12-2.6-1.42-4.8-.65-6.91-1.88s-4.15-2.49-6.39-.73c-2.25-1.12-4.71-1-7.7-1-2.47.29-3.89-1.16-5.14-1.33-1.26-2.8-2.36-.17-4.2-1.69-1.84-.65-4.43-2.13-8.66-2.81-3.65-.92-7.22-4.4-10.39-2.67-3.17,0-5.93,0-8-1.73-2-1-3.36-.9-3.64-.7-3.54-.91-5.92.9-8.1-1.33-2.18-.15-4.16-1.73-6.9-1.59-2.68.63-4.13-.57-5.56-1.9-1.43-.38-2.84-1.16-5.44-1.74-2-3.44-4.19-2.78-6.67-1.52-2.49,2-5.25.08-8.33-.67-3.55-.77-5.41,2.54-7.08,1a47.54,47.54,0,0,0-5.92.51c-.93-.5-2.33-.47-4.42-1-2.09-1.53-4.88-.52-8.58-2.63-3.37-1.73-5.55-2.75-7.17-2.14-1.62,1-2.69-.25-3.83,0-1.05-.43-1.51-.75-2.1,1.4-.59.25-1.31,1.75-2.9,3-1.84,1.23-3.76,1.62-5.51,3.73-1.75.73-3.33,2.08-4.49,2.1-2.41,1-3.67.21-4.81,1.57-1.15-1.76-2.2-1.29-4.19,1.35-3.4.9-5,5.34-6.28,4.05-1.31,3.6-2.36,2.78-4.72,2.51-2.44,1.54-4.2,1.16-5.85-.18C245.51,149,244,149,242,151c-1.54,1.89-2.07,4.62-2.71,2.1-.63.78-1.36,2.55-3.29,3a15.37,15.37,0,0,1-4.83,1.87A10.25,10.25,0,0,0,227,159.7c-2.62,2-1.93,3.36-4,5.83-1.47,1.75-3.58,3.14-11,5.83-12.63,4.57-14.29,3.37-21,6.56s-5.18,4.48-12,7.29c-7.07,2.92-9.95,2-14,5.1-3.73,2.81-3,4.86-7,7.29a23,23,0,0,1-10,2.92V318H822V133.8c0,1.34-3.33,1.8-7.78,1.8-4.44-1.19-10,2-14.44,3.34C795.33,137.67,792,142.75,792,140.74Z"/><path class="b" d="M757.06,212.77c-6.7-1.28-13.33-3-20.16-3.41s-13.46.39-20.2.44a16.82,16.82,0,0,1-4.43-.4,23.85,23.85,0,0,1-4.83-2.25c-9.9-5.15-22-4.78-33.34-5.24-12.62-.52-25.14-2.25-37.63-4l-20-2.76c-7.47-1.7-16.87-3.54-24.53-3.42a78.73,78.73,0,0,1-10.81-1.59c-5.16-1.56-11-1.64-16.29-2.9-6.19-1.45-12.45-3.19-18.92-2.76-8.27.55-15.71,4.52-23.43,7.26-10.21,3.63-21.14,5.17-32,6.68-6.67.93-13.33,2-20,2.8-2.34.3-4.19,1-6.38,1.43-2.67.48-5.76-.51-8.29.43-2.54,1.52-5.15-.13-7.71.39-2.57-3.26-5.08.2-7.44-1.19-1.5-1.23-2.9-2.2-4.32-1.9-1.42-2.9-2.86-1.48-4.44-1.59-3.06-1.57-6.15,0-9.23.82-7.34,2-14.65,5.14-22.17,1.2-1.81-.94-3.43-2.19-5.28-3.06-8.05-3.8-17.68.15-26.75.53-8.72.37-17.22-2.69-24.78-6.68-4.86-2.57-9.58-5.58-15-6.87-3-.7-6.08-.87-8.95-1.86-3.84-1.31-6.91-4-10.23-6.16a73.91,73.91,0,0,0-13.33-6.62,188,188,0,0,0-27-8.49c-3.52-.82-7.86-2.37-7.94-5.67-2,2.35-6.09,1.15-9.2.16a75.8,75.8,0,0,0-8.86-2c-18.32-3.47-38.18-7.11-55.44-13.65-2-.74-3.53.83-5-2.82-1.52-1.87-3-2.29-4.69-3.27a8.36,8.36,0,0,0-6.8-2.87c-4.13,0-8.76-4.32-12.44-3a7.58,7.58,0,0,1-1.55.5,4.58,4.58,0,0,1-2.32-.59,96,96,0,0,0-20.1-6.5c-2.86-.59-5.87-1.11-8.13-2.81-2.59-1.94-4.69-5.52-8-4.91-1.3.25-2.37,1.16-3.69,1.35a8.42,8.42,0,0,1-3.31-.5c-6.28-1.62-13,.24-18.86,2.93s-11.19,6.25-17.29,8.37c-7.19,2.51-15.22,3-22,6.34a52.39,52.39,0,0,0-5.7,3.5L28.64,149l-1.94,1.3c-3.88,2.18-7.48,5-11.15,7.49-2.78,1.87-7.54,6.74-11.13,6.82-2.73,2.1-4.43.84-4.42,2V318H822V210.31a61.6,61.6,0,0,1-20.14.32,92.39,92.39,0,0,1-40.7,2.85C759.79,213.27,758.42,213,757.06,212.77Z"/><path class="c" d="M0,205.07a62.75,62.75,0,0,1,21-4c8.3-.11,14.27,1.54,20,3,10.5,2.68,25.31,6.46,38,8,14.86,1.81,27.52.63,45-1,14.87-1.38,16.28-2.51,24-2,16.85,1.14,17.9,7.07,34,10,13,2.37,26,.58,52-3a102.7,102.7,0,0,1,15-1,79.21,79.21,0,0,1,13,1c9.38,1.65,10.69,4.46,19,7,14.89,4.56,28.52,1,32,0,7.91-2.18,6.51-3.68,13-5,12.06-2.44,17.34,2.64,30,2,9.06-.45,8-3.13,19-5,12.11-2,22.24-.06,42,4,15,3.1,15.55,4.32,27,6,7,1,10.83,1.16,27,2l38,2c26.08,1.39,32.46,2,39-3,4.94-3.74,4.84-6.75,11-10,6.68-3.52,11.18-2.29,22-4,10.43-1.64,11.33-3.57,19-5,8.84-1.64,15-.43,35,4,36.12,8,34.41,8.06,41,9,14.93,2.14,14.26.42,37,3,14.45,1.65,15.66,2.45,31,4,21.5,2.18,28.64,1.57,33,1a186.47,186.47,0,0,0,20-4c6.92-1.71,11.9-3.3,14-4,4.33-1.42,8-2.81,11-4v20H0Z"/><rect class="d" y="236.07" width="822" height="81.93"/><path class="e" d="M198,301.7c4.78-2.5,12.13-6.44,21-11.55,15.21-8.76,16.72-10.5,24-13.48,11.28-4.62,12.84-2.58,27-7.71,13.77-5,13.53-7.36,22-9.63,11.4-3.05,14.82.46,36,1.93,10.29.71,25.89,1.69,44-1.93,16.23-3.24,14.82-6.24,27-7.7,19.56-2.34,23.09,5.43,45,4.82,9.68-.28,18.12-2.43,35-6.75a306,306,0,0,0,31-9.63c15.11-5.62,16.69-7.63,40-17.33,13.19-5.49,19.78-8.23,25-9.63,15.3-4.1,18.46-1.58,42-4.81,29-4,35.63-9.39,38-11.56,6.31-5.76,5-8.91,12-14.44,8.23-6.49,15.24-6.24,29-9.63,22.76-5.61,19.31-10.17,37-13.48,14.09-2.64,17.69,0,39-2.89,9.7-1.31,14.69-1.88,21-3.85a80.63,80.63,0,0,0,29-16.38V318H198Z"/><path class="f" d="M0,185.53a46.31,46.31,0,0,1,19-.84c4.91.87,5.59,1.93,14,4.2,6.84,1.85,11.86,3.2,18,3.35,9.64.24,10.35-2.78,18-2.51s9.45,3.37,23,9.22c11.69,5.05,11.28,3.14,24,8.39,15.21,6.28,15.87,9,25,10.91,8.74,1.78,10.14-.33,23,0,3.07.08,7.51.31,38,6.71,24.58,5.15,27.13,6.14,30,7.55,10.39,5.1,10.66,8.73,21,12.58,5.12,1.91,11.82,2.7,25,4.2,22.2,2.52,22.41,1.05,30,3.35,10.55,3.2,11,6.3,23,9.23a100.44,100.44,0,0,0,18,2.52c11.53.69,13.13-.91,22,0,7.82.79,13.36,2.72,20,5,13.49,4.69,13.2,7.12,23,10.07,8.89,2.67,9.36.74,27,3.35,9.29,1.38,17.36,2.58,27,5.87,13.21,4.53,12.51,7.23,21,9.23,10.31,2.43,14.9-.72,37-4.19,15.09-2.38,25.23-4,38-3.36,17.06.82,16.38,4.51,36,5.87,9.27.65,22.25,1.56,38-1.67,12.14-2.49,14.52-5.11,24-5,9.2.07,9.84,2.55,25,5,12.86,2.1,22.69,3.6,30-.84,4.74-2.89,3-5,8-8.39,7.39-5.05,13.29-1.89,28-5a97.28,97.28,0,0,0,23-8.39c11.12-5.46,11-7.74,18-9.23,8.67-1.84,13.42.7,20-2.52a18.85,18.85,0,0,0,8-7.55V318H0Z"/><path class="g" d="M60.39,33.21c-.46-.28-.66-.13-.68.48a6.64,6.64,0,0,0,.68,1.94,6.84,6.84,0,0,0,.67-1.94c0-.61-.21-.76-.67-.48Zm6.31,225.3v23.94H54.07V258.51c-.94-.13-1.38-2.72-2.12-3.24s-.39,2.32-1.55,4.25-3-3.15-4.44-4-.52,3,.51,5.67-1.09,1.42-3.6-1-3.35-3.87-4.32-3.61-1.29,3.93-2.7,5-2.19-3.28-2.06-4.51-1.81-1-3.29.26-1.42,3.48-3.15,3.61-1.1-1.61-1.49-2.52-1.48.71-3.15,1-1.42-1.16-2.45-1.61-1.61,1.42-3.93.26-2-1.55-3.54-.9S11.05,260,9.7,259.27s-1.61-2.39-2.51-2.39-2.71,3.22-4.58,3.93.71-4.83.58-5.15-2.44.26-5.21,3.67-2.84,2-2.39-.26,2-3,1.61-3.48-6.89,5-9.21,4.58,2.48-6.09,2.35-6.06a9.82,9.82,0,0,0-4.09,2.35c-2.22,2-2.41,3.16-3.6,2.45s1.12-2.35,1.38-2.83-3,.45-4.57.58-1.16-.26-.81-1.16,1.68-.48,2.64-1-1.44-.87-.57-1.87,8.92-.61,8.92-.61a31.13,31.13,0,0,1-3.13-1.06c-1.77-.71,1.55-.87,1.13-1.29s-4.19-1.1-4.35-2.26,6.18.13,7-.09-3.09-1.48-3.48-2.32,7.51-.42,7.31-.55-2.64.13-3.83-.22,1.77-1.16,1.81-1.55-3-1-3.58-2.13S-7,240-7,240s-1.22-1.16-.32-1.55a35.74,35.74,0,0,1,5.15-.74,16.19,16.19,0,0,1-3.6-2.7c-1.16-1.36,6.11.71,6.11.71s-1.86-1.74-3.8-3.35,7.15,1.86,7.15,1.86-1.41-2.12-2.57-3.92,6.79,2,6.31,1.48-2.45-2.22-3-3.58,6.25,1.26,6.12,1.13-1.42-1.13-1.58-1.71,5-3.7,5-3.89-6.7,3.44-7.8,3.51,0-1.68.52-2.19-5.41,3.25-7,2.64,2.83-4.16,3.09-4.38-1.58.38-3.25,1.64S-4,230.16-4,228.71a12,12,0,0,1,1.8-4.77c.26-.1-5.5.71-8,.52s-.25-.65,2.16-1.81,10-1.19,10.08-1.35-4.76-1.29-5.73-2.38,2.7-.33,5.34-.52a11.35,11.35,0,0,0,5.06-1.93s-1.35-.68-2.9-1.51-3-2.19-1.87-2.29,6.93,1.74,7.28,1.67-.35-.74-1.09-1-.81-.58.48-1.19,3.54.29,3.54.29-1.9-1.22-3.7-2.54,5.8.42,5.8.42a31.76,31.76,0,0,1-4.42-3.1c-.9-1,1.74-3,.94-3s-4.35,2.66-5.11,2.8,3.45-4,2.42-4-7.12,2.16-6.92,1.36,3.92-4.32,4.09-4.51S.6,202.11-.85,202.59s1.22-2.9,1-3.32S-5.71,202.2-6.39,202s3.09-2.57,1.55-3-5.35-.06-5.28-1.06S.21,196.44.44,196.21s-3.8-1.57-3.74-2.41,7.93.35,7.76.19S.92,192.32.18,190.77s6.67.61,6.51.42-1.45-1.39.29-1.77,5.34,1.06,5.18.93a13.34,13.34,0,0,1-2.54-2.25c-1-1.26,3.83.06,3.83.06s-4.44-3.8-4.09-4.7,4.6,2.32,4.64,2-1.77-2.68-1.42-3.39,6.63,1.45,6.63,1.45a14.13,14.13,0,0,1-2.31-1.86c-1-1-.29-.68,1.15-.91s4,1.81,4.58,1.58.19-2.7-1.36-3.77-6.44,2.87-7.72,2.26,2.6-2.61,2.41-2.77-3.12.77-3.32-.19,2.71-2,2.71-2a17.05,17.05,0,0,0-2.38.42c-1.55.35-4.58,2.7-5.67,2.73s1.61-2.48,1.61-2.48-4,1.13-5.06.52,3.54-1.71,3.8-1.74-.64-.45-1.25-.68-.52-.93,1.16-1.28,9.56,1,9.56,1A31.9,31.9,0,0,1,13,172.09c-1.9-1.25-2.25-1.48-1.51-2.44S21,171.87,21,171.87s-1.61-1.29-3.57-2.74-2.12-1.48-1.42-2.32,6.09,2.64,5.54,1.55-1.93-2.64-1.19-3.06,5.64,2.16,5.93,1.93-1.78-2.9-2.13-3.7,3,1,3.19.74S26,161.89,26,161.89s-1.68.25-2.26.41-1.06,1.62-1.93,2.07.26-2.13.48-2.58-4.12,4-4.51,3,3.39-5.58,3.39-5.58-3.51,1.52-4.42,2.07-2,1.38-2.19,1,.1-1.22.46-1.8-3.64,1.93-4.38,2.38-1.65,1.45-1.9.68,1.15-2.39,1.22-2.55-3.77.68-3.7,0,2.67-1.19,3.38-1.45-5.38-.16-6.15-.64.09-.81,1.51-1.16,9.63-1,9.63-1a16.1,16.1,0,0,0-2.45-1c-1.45-.48-3.8-1.52-3.51-2.74s7.89,1.1,8.34.84,2-1.39,1.1-2.19-3.61-2.51-3.32-4.09,7.05,2.35,7.63,2.06a2.48,2.48,0,0,0,.87-2c-.16-.25-1.51-1.51-2.7-2.86s.25-1.07,2.31-.29,3.77,2.9,3.93,2.54-.8-1.67-.8-2,1.51-.64,1.74-1.7.29-1.37.19-1.34a17.61,17.61,0,0,1-1.56,1.08c-.66.34-.82-.08-.4-.95s1.41-1.34,1.57-1.55-.06-.4-.93-.58-6,.84-6.55.6.82-.89.9-.92-4-.71-4.72-1.06.34-.9,1.92-.82,7.73.22,7.87.09a.4.4,0,0,0-.19-.61c-.29-.11-2.39-.48-2.29-1.22s2.48-.55,2.48-.55-1-.79-.8-1.26a19.22,19.22,0,0,1,2.7-2.25s-2.7,1.45-3.19,1.67,0-.83,0-.83-4.12,1.12-5.28,1.51-2.8.68-2.32-.1,4.77-2.54,4.77-2.54-1.1.32-1.58-.13.93-.93.93-.93a18,18,0,0,0-3.86.09c-1,.29-4.06,2.58-4.12,1.84s2.41-2.29,2.57-2.29-5.79-.93-5.76-1.38,4.86-.23,4.86-.23a2.73,2.73,0,0,1-.45-1.16c0-.48.19-.67,1.61.23a15.8,15.8,0,0,0,3,1.43,1.11,1.11,0,0,1-.46-.53c-.13-.35.27-.47,1.72-.84s4.3.52,4.3.29-3.38-.8-4.51-1.16-.77-.64-.19-1.12,3.44-.12,3.44-.12-.48-.35-2.06-1.83-2.12-2.38-.58-2.38,5.25,4.18,5.9,4.21,2.48-.64,2.44-1.16-2.12-.41-2.89-1,2.54-.86,3-1-.87-.77-1.83-1.26-1.68-1.32-.42-1.7,6,.41,5.86.25-2.48-2.44-3.51-3.28-.58-1.16.51-1.29a28.17,28.17,0,0,1,4.29.32s-1.29-.35-1.52-.93,2.35-.74,2.51-.74a6.91,6.91,0,0,0-2.8-1c-1.9-.42-4.92-.45-7-.71s-2.51-.71-1.06-1.51,4-.1,5.25,0a10.13,10.13,0,0,0,2.12,0c.68-.07,2.74-.55,2.74-.55a10.47,10.47,0,0,0-2.22-1.55c-1-.45-3.22-1.15-3.19-1.93s2.54-.32,3.77.07,2.74-1.23,3.25-1.29S33,104.16,32.21,104s-.84-.74.06-1.45,2.8-1.9,2.8-1.9a7.29,7.29,0,0,0-2.54-.06c-1.64.19-4,1.71-5.28,2.22s-2.29,1.29-2.61.61,2.87-2.35,3.61-2.44-3.06-.52-4.38-.78-1.45-.74-.58-1.16,5.7.45,6.63.23.65-.74,1.13-.68-1.13-.9-1.74-1.35-.48-1,1.09-1,6.64.87,6.64.87l-.71-.29.22-1.51s-2.28-1.19-3.63-2.1-1.87-1.57-.07-1.93,5.89,1,6.35.84a8.74,8.74,0,0,0,1.57-1s-2-.25-2.28-.32-1.45-.16-.9-.9S41,89.28,41,89.28s-6.93-.77-7.18-.93.16-.48,1.35-.84a30.57,30.57,0,0,1,5.38-.19,22.47,22.47,0,0,1-2.11-1.53c-.37-.39-.63-1.34.21-1.21A18.11,18.11,0,0,1,41.79,86l2-1.31s-2.31.55-2.6.18.26-.85.26-.85a4.51,4.51,0,0,1,.58-.5,16.85,16.85,0,0,1,1.92-1,9,9,0,0,0-2.59,0c-1,.22-1.5,0-1.44-.37S42.16,81,42.16,81h-2c-.67,0-1.8,0-1.54-.65s2.25-1,2.44-.93S33.54,78.25,33.17,78s.07-1.37,1.24-1.55a22.51,22.51,0,0,1,5.14.18,29.47,29.47,0,0,1,2.9.87s-1.61-1.8-2.26-2.67-.38-1.45.84-1.51,4.48,1.77,4.48,1.77a2.55,2.55,0,0,1-.26-1.71c.26-.74,3.32.19,3.32.19s-3-3.64-2.93-4.25,1.74-1.09,1.74-1.09-3.16.38-3.32-.52,2.38-1.38,2.38-1.38-4.6-1.55-5-1.81-.84-.9-.26-1.12,6,1,6.22,1-1.26-.74-2.26-1.44-1.06-1.23-.25-1.39,5.86,1.48,6.34,1.64-2.64-2.44-3.38-3-.71-1.39.16-1.52a44.18,44.18,0,0,1,4.61.2s-1-.87-1.78-1.71-1.61-1.42-.7-2.09,3.54,1.12,3.54,1.12-2.71-2.06-2.16-2.8,1.84.39,1.35-.38S50.6,50.69,51.05,50s5.21,2.09,5.38,2.19-1.16-3.42-.58-4.16,2.89,1.32,2.89,1.32-1.35-1.74-1.86-2.38-1.55-1.77-1.26-2.7,4.19.86,4.19.86-3.35-5-3.74-6.37.2-1.55,1.23-1.32a13.07,13.07,0,0,1,3.09,2.06,12.68,12.68,0,0,1,3.09-2.06c1-.23,1.61,0,1.22,1.32S61,45.08,61,45.08s3.9-1.8,4.19-.86-.74,2.06-1.26,2.7S62,49.3,62,49.3s2.32-2.06,2.89-1.32-.74,4.25-.57,4.16,4.92-2.93,5.37-2.19S68.37,52.23,67.89,53s.8-.36,1.35.38-2.16,2.8-2.16,2.8,2.64-1.8,3.54-1.12.07,1.25-.7,2.09-1.78,1.71-1.78,1.71a44.18,44.18,0,0,1,4.61-.2c.87.13.9,1,.16,1.52s-3.86,3.15-3.38,3,5.54-1.8,6.34-1.64.74.68-.25,1.39-2.48,1.48-2.26,1.44,5.64-1.22,6.22-1,.13.87-.26,1.12-5,1.81-5,1.81,2.54.48,2.38,1.38-3.32.52-3.32.52,1.68.48,1.74,1.09-2.93,4.25-2.93,4.25,3.06-.93,3.32-.19a2.55,2.55,0,0,1-.26,1.71s3.26-1.84,4.48-1.77,1.48.64.84,1.51-2.26,2.67-2.26,2.67,1.81-.64,2.9-.87a22.51,22.51,0,0,1,5.14-.18c1.17.18,1.61,1.28,1.24,1.55s-8.09,1.51-7.89,1.45,2.19.32,2.44.93-.87.65-1.54.65h-2s2.14.77,2.21,1.11-.44.59-1.44.37a9,9,0,0,0-2.59,0,16.85,16.85,0,0,1,1.92,1,4.51,4.51,0,0,1,.58.5s.55.48.26.85-2.6-.18-2.6-.18L79,86a18.11,18.11,0,0,1,3.17-1.39c.84-.13.58.82.21,1.21a22.47,22.47,0,0,1-2.11,1.53,30.57,30.57,0,0,1,5.38.19c1.19.36,1.61.68,1.35.84s-7.18.93-7.18.93,2.84-.06,3.39.68-.58.84-.91.9-2.28.32-2.28.32a8.74,8.74,0,0,0,1.57,1c.46.13,4.55-1.19,6.35-.84s1.29,1-.07,1.93-3.63,2.1-3.63,2.1l.22,1.51-.71.29s5.06-.87,6.64-.87,1.7.55,1.09,1-2.22,1.42-1.74,1.35.2.45,1.13.68,5.76-.64,6.63-.23.74.9-.58,1.16-5.12.68-4.38.78,3.93,1.77,3.61,2.44-1.29-.09-2.61-.61-3.64-2-5.28-2.22a7.29,7.29,0,0,0-2.54.06s1.9,1.2,2.8,1.9.84,1.32.06,1.45-4.22,1.19-3.7,1.26,2,1.67,3.25,1.29,3.74-.84,3.77-.07-2.16,1.48-3.19,1.93A10.47,10.47,0,0,0,86.47,110s2.06.48,2.74.55a10.13,10.13,0,0,0,2.12,0c1.29-.1,3.8-.81,5.25,0s1,1.25-1.06,1.51-5.12.29-7,.71a6.91,6.91,0,0,0-2.8,1c.16,0,2.73.16,2.51.74s-1.51.93-1.51.93a28,28,0,0,1,4.28-.32c1.09.13,1.54.45.51,1.29s-3.35,3.12-3.51,3.28,4.61-.64,5.86-.25.55,1.22-.41,1.7-2.29,1.16-1.84,1.26,3.77.35,3,1-2.87.52-2.9,1,1.8,1.2,2.44,1.16,4.35-4.21,5.9-4.21,1,.9-.58,2.38-2.06,1.83-2.06,1.83,2.86-.37,3.44.12.94.77-.19,1.12-4.51.94-4.51,1.16,2.85-.66,4.3-.29,1.85.49,1.72.84a1.11,1.11,0,0,1-.46.53,15.8,15.8,0,0,0,3-1.43c1.42-.9,1.61-.71,1.61-.23a2.73,2.73,0,0,1-.45,1.16s4.83-.22,4.86.23-5.92,1.38-5.76,1.38,2.64,1.55,2.57,2.29-3.12-1.55-4.12-1.84a18,18,0,0,0-3.86-.09s1.42.48.93.93-1.58.13-1.58.13,4.29,1.77,4.77,2.54-1.16.49-2.32.1-5.28-1.51-5.28-1.51.45,1.06,0,.83-3.19-1.67-3.19-1.67a19.82,19.82,0,0,1,2.71,2.25c.22.47-.81,1.26-.81,1.26s2.38-.19,2.48.55-2,1.11-2.29,1.22a.4.4,0,0,0-.19.61c.14.13,6.3,0,7.87-.09s2.6.46,1.92.82-4.8,1-4.72,1.06,1.42.68.9.92-5.68-.77-6.55-.6-1.09.37-.93.58,1.16.68,1.57,1.55.26,1.29-.4.95a17.61,17.61,0,0,1-1.56-1.08c-.1,0,0,.27.19,1.34s1.74,1.35,1.74,1.7-1,1.68-.8,2,1.86-1.77,3.93-2.54,3.51-1.07,2.31.29-2.54,2.61-2.7,2.86a2.48,2.48,0,0,0,.87,2c.58.29,7.34-3.64,7.63-2.06s-2.38,3.28-3.32,4.09.65,1.93,1.1,2.19,8-2.06,8.34-.84-2.06,2.26-3.51,2.74a16.1,16.1,0,0,0-2.45,1s8.21.68,9.63,1,2.29.68,1.51,1.16-6.85.38-6.15.64,3.32.74,3.38,1.45-3.76-.13-3.7,0,1.48,1.78,1.22,2.55-1.15-.23-1.89-.68-4.74-3-4.38-2.38.67,1.38.45,1.8-1.29-.42-2.19-1-4.41-2.07-4.41-2.07,3.76,4.64,3.38,5.58-4.74-3.48-4.51-3,1.35,3,.48,2.58-1.35-1.9-1.93-2.07-2.25-.41-2.25-.41-1.52,2.15-1.36,2.38,3.54-1.55,3.19-.74-2.42,3.48-2.13,3.7,5.19-2.35,5.93-1.93-.64,2-1.19,3.06,4.83-2.38,5.54-1.55.54.87-1.42,2.32-3.57,2.74-3.57,2.74,8.72-3.19,9.46-2.22.39,1.19-1.51,2.44a31.9,31.9,0,0,1-4.09,2.23s7.89-1.39,9.56-1,1.78,1.06,1.16,1.28-1.51.65-1.25.68,4.86,1.13,3.8,1.74-5.06-.52-5.06-.52,2.71,2.52,1.61,2.48-4.12-2.38-5.67-2.73a17.05,17.05,0,0,0-2.38-.42s2.9,1.06,2.71,2-3.13,0-3.32.19,3.7,2.16,2.41,2.77-6.18-3.32-7.72-2.26-1.94,3.55-1.36,3.77,3.13-1.8,4.58-1.58,2.15-.12,1.16.91a14.46,14.46,0,0,1-2.32,1.86s6.28-2.15,6.63-1.45-1.45,3-1.42,3.39,4.29-2.87,4.64-2-4.09,4.7-4.09,4.7,4.86-1.32,3.83-.06a13.34,13.34,0,0,1-2.54,2.25c-.16.13,3.44-1.32,5.18-.93s.46,1.58.29,1.77,7.25-2,6.51-.42-4.12,3.06-4.28,3.22,7.69-1,7.76-.19-4,2.19-3.74,2.41,10.5.81,10.56,1.81-3.73.67-5.28,1.06,2.22,2.8,1.55,3-6.38-3.19-6.57-2.77,2.48,3.8,1,3.32-6.22-2.87-6.05-2.67,3.89,3.7,4.08,4.51-5.89-1.36-6.92-1.36,3.17,4.11,2.42,4-4.3-2.8-5.11-2.8,1.84,2,.94,3a31.76,31.76,0,0,1-4.42,3.1s7.6-1.74,5.8-.42-3.7,2.54-3.7,2.54,2.25-.9,3.54-.29,1.22.9.48,1.19-1.45,1-1.09,1,6.18-1.77,7.28-1.67-.33,1.45-1.87,2.29-2.9,1.51-2.9,1.51a11.41,11.41,0,0,0,5.06,1.93c2.64.19,6.31-.58,5.34.52s-5.8,2.22-5.73,2.38,7.66.19,10.08,1.35,4.67,1.61,2.16,1.81-8.28-.62-8-.52a11.82,11.82,0,0,1,1.8,4.77c0,1.45-1.83-2.48-3.51-3.74s-3.51-1.87-3.25-1.64,4.67,3.77,3.09,4.38-7.47-3.16-7-2.64,1.61,2.25.52,2.19-7.86-3.71-7.8-3.51,5.19,3.31,5,3.89-1.45,1.58-1.58,1.71,6.7-2.48,6.12-1.13-2.55,3-3,3.58,7.47-3.29,6.31-1.48-2.57,3.92-2.57,3.92,9.08-3.47,7.15-1.86-3.8,3.35-3.8,3.35,7.27-2.07,6.12-.71a16.16,16.16,0,0,1-3.61,2.7,35.74,35.74,0,0,1,5.15.74c.9.39-.32,1.55-.32,1.55s5-.61,4.41.51-3.61,1.74-3.57,2.13,3,1.19,1.8,1.55-3.64.09-3.83.22,7.69-.29,7.31.55-4.32,2.09-3.48,2.32,7.18-1.07,7,.09-3.93,1.84-4.35,2.26,2.9.58,1.13,1.29a31.52,31.52,0,0,1-3.12,1.06s8.05-.39,8.92.61-1.55,1.32-.58,1.87,2.28.13,2.64,1,.74,1.29-.81,1.16-4.83-1.07-4.57-.58,2.57,2.12,1.38,2.83-1.38-.48-3.6-2.45a9.82,9.82,0,0,0-4.09-2.35c-.13,0,4.67,5.61,2.35,6.06s-8.83-5-9.21-4.58,1.16,1.23,1.61,3.48.38,3.67-2.39.26-5.08-4-5.21-3.67,2.44,5.86.58,5.15-3.67-3.93-4.58-3.93-1.15,1.68-2.51,2.39-1.54-1.55-3.09-2.19-1.22-.26-3.54.9-2.9-.71-3.93-.26-.77,1.87-2.45,1.61-2.77-1.87-3.15-1,.25,2.64-1.48,2.52-1.68-2.39-3.16-3.61S86.86,255.79,87,257s-.64,5.54-2.06,4.51-1.73-4.7-2.7-5-1.8,1.16-4.32,3.61-4.63,3.73-3.6,1,1.93-6.51.51-5.67-3.28,5.93-4.44,4-.71-4.83-1.55-4.25S67.64,258.38,66.7,258.51Z"/><path class="g" d="M769.72,9.92c-.5-.31-.72-.14-.74.52a7.45,7.45,0,0,0,.74,2.12,7.45,7.45,0,0,0,.74-2.12c0-.66-.24-.83-.74-.52Zm6.9,246.35v26.18h-13.8V256.27c-1-.14-1.52-3-2.33-3.54s-.42,2.54-1.69,4.65-3.31-3.45-4.86-4.37-.56,3.24.57,6.2-1.2,1.55-4-1.12-3.66-4.23-4.72-3.95-1.4,4.3-3,5.42-2.4-3.59-2.26-4.93-2-1-3.59.29-1.55,3.8-3.45,3.94-1.2-1.76-1.62-2.75-1.62.78-3.45,1.06-1.55-1.27-2.68-1.76-1.76,1.55-4.29.28-2.19-1.69-3.88-1-1.9,3.16-3.38,2.39-1.76-2.61-2.74-2.61-3,3.53-5,4.3.77-5.28.63-5.63-2.68.28-5.7,4-3.1,2.18-2.61-.28,2.18-3.31,1.76-3.8-7.53,5.49-10.07,5,2.71-6.66,2.57-6.62a10.43,10.43,0,0,0-4.47,2.57c-2.43,2.14-2.64,3.45-3.95,2.67s1.24-2.57,1.52-3.1-3.31.5-5,.64S680,254,680.35,253s1.83-.53,2.89-1.13-1.59-.95-.64-2,9.76-.67,9.76-.67a33.34,33.34,0,0,1-3.42-1.16c-1.94-.78,1.69-.95,1.23-1.41s-4.57-1.2-4.75-2.46,6.76.14,7.68-.11-3.39-1.62-3.81-2.53,8.21-.46,8-.6-2.89.14-4.19-.25,1.93-1.27,2-1.69-3.24-1.09-3.91-2.32S696,236,696,236s-1.34-1.27-.35-1.69a38.57,38.57,0,0,1,5.63-.81,17.73,17.73,0,0,1-3.94-3c-1.27-1.47,6.69.78,6.69.78s-2-1.9-4.15-3.66,7.81,2,7.81,2-1.55-2.32-2.81-4.3,7.43,2.22,6.9,1.62-2.68-2.43-3.31-3.9,6.83,1.37,6.69,1.23-1.55-1.23-1.73-1.87,5.43-4.05,5.5-4.26-7.33,3.77-8.53,3.84,0-1.83.57-2.4-5.92,3.56-7.64,2.89,3.1-4.54,3.38-4.79-1.73.43-3.56,1.8-3.84,5.67-3.84,4.08a13,13,0,0,1,2-5.21c.29-.1-6,.78-8.76.57s-.29-.71,2.36-2,10.95-1.3,11-1.48-5.21-1.4-6.27-2.6,3-.35,5.84-.56A12.56,12.56,0,0,0,711,210.3s-1.48-.74-3.17-1.65-3.24-2.4-2-2.5,7.57,1.9,8,1.83-.39-.81-1.2-1.13-.88-.63.53-1.3,3.87.32,3.87.32-2.07-1.34-4-2.79,6.34.46,6.34.46a33.94,33.94,0,0,1-4.82-3.38c-1-1.09,1.9-3.24,1-3.24s-4.75,2.91-5.58,3.07,3.77-4.34,2.64-4.34-7.78,2.36-7.57,1.48,4.29-4.71,4.47-4.93-5,2.4-6.62,2.93,1.34-3.17,1.13-3.63-6.45,3.2-7.19,3,3.38-2.82,1.69-3.24-5.84-.07-5.77-1.16,11.3-1.73,11.55-2-4.16-1.72-4.09-2.64,8.67.39,8.49.21-3.87-1.83-4.68-3.52,7.29.67,7.11.46-1.58-1.51.32-1.94,5.84,1.17,5.67,1a14.46,14.46,0,0,1-2.79-2.47c-1.12-1.37,4.19.07,4.19.07s-4.85-4.15-4.47-5.14,5,2.54,5.07,2.15-1.93-2.92-1.55-3.7,7.26,1.59,7.26,1.59a16,16,0,0,1-2.54-2.05c-1.09-1.12-.31-.74,1.27-1s4.37,2,5,1.72.21-3-1.48-4.12-7,3.14-8.45,2.47,2.85-2.85,2.64-3-3.41.84-3.62-.21,3-2.22,3-2.22a19.68,19.68,0,0,0-2.6.46c-1.69.38-5,3-6.2,3s1.76-2.71,1.76-2.71-4.37,1.23-5.53.56,3.87-1.86,4.16-1.9-.71-.49-1.38-.74-.56-1,1.27-1.41,10.46,1.13,10.46,1.13a34.85,34.85,0,0,1-4.47-2.43c-2.08-1.37-2.47-1.62-1.66-2.68s10.35,2.43,10.35,2.43-1.76-1.4-3.9-3-2.33-1.62-1.55-2.53,6.65,2.88,6.05,1.69-2.11-2.89-1.3-3.35,6.16,2.36,6.48,2.11-1.94-3.17-2.32-4.05,3.31,1.06,3.48.81-1.48-2.6-1.48-2.6-1.83.28-2.46.46-1.16,1.76-2.11,2.25.28-2.32.52-2.82-4.5,4.33-4.93,3.31,3.7-6.09,3.7-6.09S723,149.39,722,150s-2.15,1.52-2.4,1.06.11-1.34.5-2-4,2.11-4.79,2.6-1.8,1.59-2.08.74,1.27-2.6,1.34-2.78-4.12.74-4,0,2.92-1.31,3.69-1.59-5.88-.17-6.72-.7.1-.88,1.65-1.27,10.53-1.13,10.53-1.13a17.35,17.35,0,0,0-2.67-1.12c-1.59-.53-4.16-1.66-3.84-3s8.63,1.2,9.12.92,2.22-1.51,1.2-2.39-4-2.75-3.63-4.48,7.71,2.57,8.34,2.26a2.68,2.68,0,0,0,1-2.19c-.17-.28-1.65-1.65-3-3.13s.28-1.16,2.53-.32,4.12,3.17,4.3,2.78-.88-1.83-.88-2.21,1.65-.71,1.9-1.87.32-1.5.21-1.46a18.63,18.63,0,0,1-1.71,1.18c-.72.37-.89-.09-.44-1s1.55-1.46,1.73-1.69-.07-.44-1-.63-6.61.91-7.17.65.9-1,1-1-4.42-.77-5.16-1.16.37-1,2.09-.9,8.45.25,8.61.11a.44.44,0,0,0-.21-.67c-.32-.12-2.6-.53-2.5-1.34s2.71-.6,2.71-.6-1.12-.86-.88-1.37a21.24,21.24,0,0,1,3-2.47s-3,1.59-3.49,1.84,0-.92,0-.92-4.51,1.23-5.78,1.65-3.06.74-2.53-.1,5.21-2.78,5.21-2.78-1.2.35-1.72-.14,1-1,1-1a19.58,19.58,0,0,0-4.23.1c-1.09.32-4.44,2.82-4.51,2s2.64-2.5,2.82-2.5-6.34-1-6.3-1.52,5.31-.24,5.31-.24a3,3,0,0,1-.49-1.27c0-.53.21-.74,1.76.25a17.27,17.27,0,0,0,3.28,1.56,1.16,1.16,0,0,1-.51-.58c-.14-.38.3-.51,1.88-.91s4.7.56,4.7.31-3.7-.88-4.93-1.26-.84-.71-.21-1.24,3.77-.12,3.77-.12-.53-.39-2.26-2-2.32-2.6-.63-2.6,5.74,4.58,6.45,4.61,2.71-.7,2.67-1.27-2.32-.46-3.17-1.12,2.78-.95,3.28-1.06-1-.84-2-1.37-1.83-1.45-.46-1.87,6.59.46,6.41.28-2.71-2.67-3.84-3.59-.63-1.27.57-1.41a31.06,31.06,0,0,1,4.68.35s-1.41-.38-1.66-1S741.86,98,742,98A7.46,7.46,0,0,0,739,96.87c-2.08-.46-5.39-.5-7.68-.78s-2.75-.77-1.16-1.65,4.33-.11,5.74,0a10.63,10.63,0,0,0,2.32,0c.74-.07,3-.6,3-.6a11.43,11.43,0,0,0-2.42-1.69c-1.13-.49-3.53-1.26-3.49-2.11s2.78-.35,4.12.07,3-1.34,3.56-1.41-3.21-1.23-4.05-1.37-.92-.81.07-1.59S742,83.7,742,83.7a7.56,7.56,0,0,0-2.78-.07c-1.8.21-4.33,1.86-5.78,2.43s-2.5,1.4-2.85.66,3.14-2.57,3.94-2.67-3.34-.56-4.78-.85-1.59-.81-.64-1.26,6.23.49,7.26.24.7-.81,1.23-.74-1.23-1-1.9-1.48-.53-1.09,1.19-1.09,7.26.95,7.26.95l-.78-.31.25-1.66s-2.5-1.3-4-2.29-2-1.72-.07-2.11,6.44,1.06,6.94.92a10.19,10.19,0,0,0,1.72-1.06s-2.15-.28-2.5-.35-1.58-.18-1-1,3.69-.74,3.69-.74-7.57-.84-7.85-1,.18-.53,1.48-.92a33.71,33.71,0,0,1,5.88-.21,26.43,26.43,0,0,1-2.31-1.67c-.4-.42-.68-1.46.23-1.32a19.41,19.41,0,0,1,3.47,1.51l2.22-1.42s-2.52.6-2.83.19.28-.93.28-.93a5.42,5.42,0,0,1,.63-.55,18.3,18.3,0,0,1,2.1-1.09,10.33,10.33,0,0,0-2.84,0c-1.09.25-1.63,0-1.56-.4s2.41-1.22,2.41-1.22H747.6c-.74,0-2,0-1.69-.7s2.47-1.09,2.68-1-8.22-1.29-8.63-1.59.07-1.49,1.36-1.69a23.9,23.9,0,0,1,5.62.2,30.25,30.25,0,0,1,3.17.95s-1.77-2-2.47-2.93-.42-1.58.92-1.65,4.89,1.93,4.89,1.93a2.78,2.78,0,0,1-.28-1.86c.28-.81,3.63.21,3.63.21s-3.28-4-3.21-4.65,1.9-1.2,1.9-1.2-3.45.43-3.62-.56,2.6-1.51,2.6-1.51-5-1.69-5.46-2-.91-1-.28-1.23,6.55,1.06,6.8,1.09-1.38-.81-2.47-1.58-1.16-1.34-.28-1.51,6.41,1.62,6.94,1.79S756.83,40,756,39.42s-.77-1.52.18-1.66a46.17,46.17,0,0,1,5,.21s-1.09-.95-1.93-1.86-1.76-1.55-.78-2.29,3.87,1.23,3.87,1.23S759.44,32.8,760,32s2,.42,1.47-.43-2.5-2.53-2-3.34,5.7,2.29,5.88,2.39-1.27-3.73-.64-4.54,3.17,1.45,3.17,1.45-1.48-1.91-2-2.61-1.69-1.94-1.37-3,4.58.95,4.58.95-3.67-5.53-4.09-7,.21-1.69,1.34-1.44a14.13,14.13,0,0,1,3.38,2.25,13.93,13.93,0,0,1,3.38-2.25c1.12-.25,1.76,0,1.33,1.44s-4.08,7-4.08,7,4.26-2,4.58-.95-.81,2.25-1.38,3-2,2.61-2,2.61,2.54-2.26,3.17-1.45-.81,4.65-.63,4.54,5.38-3.2,5.88-2.39-1.48,2.5-2,3.34.88-.38,1.48.43S777,35.05,777,35.05s2.89-2,3.87-1.23.07,1.37-.77,2.29S778.2,38,778.2,38a46.38,46.38,0,0,1,5-.21c1,.14,1,1.06.17,1.66s-4.22,3.45-3.69,3.27,6-2,6.93-1.79.81.74-.28,1.51S783.66,44,783.91,44s6.16-1.33,6.79-1.09.14,1-.28,1.23-5.46,2-5.46,2,2.79.53,2.61,1.51-3.63.56-3.63.56,1.83.53,1.9,1.2-3.2,4.65-3.2,4.65,3.35-1,3.63-.21a2.78,2.78,0,0,1-.28,1.86s3.55-2,4.89-1.93,1.62.7.91,1.65-2.46,2.93-2.46,2.93a29.45,29.45,0,0,1,3.17-.95,23.88,23.88,0,0,1,5.62-.2c1.28.2,1.76,1.39,1.35,1.69s-8.84,1.66-8.63,1.59,2.4.35,2.68,1-.95.7-1.69.7h-2.18s2.34.85,2.41,1.22-.48.65-1.57.4a10.25,10.25,0,0,0-2.83,0,18.37,18.37,0,0,1,2.09,1.09,6.49,6.49,0,0,1,.64.55s.6.53.28.93-2.84-.19-2.84-.19l2.22,1.42a19.75,19.75,0,0,1,3.47-1.51c.92-.14.63.9.23,1.32a26.43,26.43,0,0,1-2.31,1.67,33.71,33.71,0,0,1,5.88.21c1.31.39,1.76.74,1.48.92s-7.85,1-7.85,1,3.1-.07,3.7.74-.64.92-1,1-2.5.35-2.5.35a10,10,0,0,0,1.73,1.06c.49.14,5-1.31,6.93-.92s1.41,1.13-.07,2.11-4,2.29-4,2.29l.24,1.66-.77.31s5.52-.95,7.25-.95,1.87.6,1.2,1.09-2.43,1.55-1.9,1.48.21.5,1.23.74,6.3-.7,7.25-.24.81,1-.63,1.26-5.6.74-4.79.85,4.3,1.94,3.94,2.67-1.41-.1-2.85-.66-4-2.22-5.77-2.43a7.6,7.6,0,0,0-2.79.07s2.08,1.3,3.07,2.07.91,1.45.07,1.59-4.61,1.3-4,1.37,2.22,1.83,3.56,1.41,4.08-.92,4.12-.07-2.36,1.62-3.49,2.11a11.32,11.32,0,0,0-2.43,1.69s2.25.53,3,.6a10.73,10.73,0,0,0,2.33,0c1.41-.11,4.15-.88,5.74,0s1.12,1.37-1.17,1.65-5.59.32-7.67.78A7.56,7.56,0,0,0,797.39,98c.18,0,3,.18,2.75.81s-1.65,1-1.65,1a30.94,30.94,0,0,1,4.68-.35c1.2.14,1.69.5.56,1.41s-3.66,3.42-3.83,3.59,5-.7,6.4-.28.6,1.34-.45,1.87-2.5,1.26-2,1.37,4.12.39,3.27,1.06-3.13.56-3.17,1.12,2,1.31,2.68,1.27,4.75-4.61,6.44-4.61,1.1,1-.63,2.6-2.25,2-2.25,2,3.13-.4,3.76.12,1,.85-.21,1.24-4.93,1-4.93,1.26,3.12-.72,4.7-.31,2,.53,1.89.91a1.16,1.16,0,0,1-.51.58,17.34,17.34,0,0,0,3.27-1.56c1.55-1,1.76-.78,1.76-.25a3,3,0,0,1-.49,1.27s5.28-.25,5.32.24-6.48,1.52-6.31,1.52,2.89,1.69,2.82,2.5-3.41-1.69-4.51-2a19.49,19.49,0,0,0-4.22-.1s1.55.52,1,1-1.73.14-1.73.14,4.69,1.93,5.22,2.78-1.27.53-2.54.1-5.77-1.65-5.77-1.65.49,1.16,0,.92-3.49-1.84-3.49-1.84a20.67,20.67,0,0,1,3,2.47c.25.51-.88,1.37-.88,1.37s2.61-.21,2.71.6-2.18,1.22-2.5,1.34a.44.44,0,0,0-.21.67c.16.14,6.89,0,8.61-.11s2.84.51,2.1.9-5.25,1.13-5.16,1.16,1.55.74,1,1-6.21-.85-7.16-.65-1.2.4-1,.63,1.26.74,1.72,1.69.28,1.41-.44,1a20.25,20.25,0,0,1-1.71-1.18c-.1,0,0,.3.22,1.46s1.9,1.48,1.9,1.87-1.06,1.83-.88,2.21,2-1.93,4.29-2.78,3.84-1.16,2.54.32-2.78,2.85-3,3.13a2.71,2.71,0,0,0,1,2.19c.63.31,8-4,8.35-2.26s-2.61,3.6-3.63,4.48.7,2.11,1.2,2.39,8.8-2.25,9.12-.92-2.26,2.47-3.84,3a17.22,17.22,0,0,0-2.68,1.12s9,.74,10.53,1.13,2.5.74,1.66,1.27-7.5.42-6.73.7,3.63.81,3.7,1.59-4.12-.14-4,0,1.62,1.94,1.34,2.78-1.27-.24-2.08-.74-5.18-3.23-4.79-2.6.74,1.51.49,2-1.41-.46-2.39-1.06-4.83-2.25-4.83-2.25,4.12,5.07,3.7,6.09-5.17-3.8-4.93-3.31,1.48,3.31.53,2.82-1.48-2.08-2.11-2.25-2.47-.46-2.47-.46-1.65,2.36-1.48,2.6,3.88-1.69,3.49-.81-2.64,3.81-2.33,4.05,5.67-2.57,6.48-2.11-.7,2.15-1.3,3.35,5.28-2.61,6.06-1.69.6,1-1.55,2.53-3.91,3-3.91,3,9.54-3.48,10.35-2.43.43,1.31-1.65,2.68a35.61,35.61,0,0,1-4.47,2.43s8.62-1.51,10.45-1.13,1.94,1.17,1.27,1.41-1.65.71-1.37.74,5.31,1.23,4.15,1.9-5.53-.56-5.53-.56,3,2.75,1.77,2.71-4.51-2.61-6.2-3a19.63,19.63,0,0,0-2.61-.46s3.17,1.16,3,2.22-3.42,0-3.63.21,4.05,2.36,2.64,3-6.76-3.63-8.45-2.47-2.11,3.88-1.48,4.12,3.42-2,5-1.72,2.36-.14,1.27,1a16.1,16.1,0,0,1-2.53,2.05s6.86-2.36,7.25-1.59-1.58,3.31-1.55,3.7,4.68-3.14,5.07-2.15-4.47,5.14-4.47,5.14,5.32-1.44,4.19-.07a14.85,14.85,0,0,1-2.78,2.47c-.18.14,3.77-1.45,5.67-1s.49,1.73.31,1.94,7.93-2.15,7.12-.46-4.51,3.35-4.69,3.52,8.42-1.12,8.49-.21-4.33,2.4-4.08,2.64,11.47.88,11.54,2-4.08.74-5.77,1.16,2.43,3.06,1.69,3.24-7-3.49-7.18-3,2.71,4.15,1.12,3.63-6.79-3.14-6.62-2.93,4.27,4.05,4.48,4.93-6.45-1.48-7.57-1.48,3.46,4.49,2.64,4.34-4.7-3.07-5.59-3.07,2,2.15,1,3.24a34.47,34.47,0,0,1-4.83,3.38s8.31-1.9,6.34-.46-4,2.79-4,2.79,2.47-1,3.87-.32,1.34,1,.53,1.3-1.58,1.06-1.19,1.13,6.76-1.94,7.95-1.83-.35,1.58-2,2.5-3.17,1.65-3.17,1.65a12.56,12.56,0,0,0,5.53,2.12c2.89.21,6.9-.64,5.85.56s-6.34,2.43-6.27,2.6,8.38.22,11,1.48,5.1,1.76,2.36,2-9.05-.67-8.77-.57a13,13,0,0,1,2,5.21c0,1.59-2-2.71-3.84-4.08s-3.83-2-3.55-1.8,5.1,4.12,3.38,4.79-8.17-3.45-7.64-2.89,1.76,2.47.56,2.4-8.59-4-8.52-3.84,5.67,3.63,5.49,4.26-1.58,1.73-1.72,1.87,7.32-2.71,6.69-1.23-2.78,3.31-3.31,3.9,8.17-3.59,6.9-1.62-2.82,4.3-2.82,4.3,9.93-3.8,7.82-2-4.16,3.66-4.16,3.66,8-2.25,6.69-.78a17.5,17.5,0,0,1-3.94,3,38.38,38.38,0,0,1,5.63.81c1,.42-.35,1.69-.35,1.69s5.5-.67,4.83.57-3.95,1.9-3.91,2.32,3.27,1.3,2,1.69-4,.11-4.19.25,8.41-.32,8,.6-4.72,2.28-3.8,2.53,7.85-1.16,7.68.11-4.3,2-4.76,2.46,3.17.63,1.23,1.41a32.77,32.77,0,0,1-3.41,1.16s8.8-.42,9.75.67-1.69,1.44-.63,2,2.5.14,2.89,1.13.81,1.41-.88,1.27-5.29-1.16-5-.64,2.81,2.33,1.51,3.1-1.51-.53-3.94-2.67a10.37,10.37,0,0,0-4.48-2.57c-.14,0,5.11,6.12,2.57,6.62s-9.64-5.5-10.07-5,1.27,1.33,1.76,3.8.43,4-2.6.28-5.57-4.37-5.71-4,2.68,6.4.64,5.63-4-4.3-5-4.3-1.27,1.83-2.75,2.61-1.69-1.69-3.38-2.39-1.34-.29-3.87,1-3.17-.77-4.3-.28-.84,2-2.67,1.76-3-2-3.46-1.06.29,2.89-1.61,2.75-1.84-2.61-3.46-3.94-3.73-1.62-3.59-.29-.7,6.06-2.25,4.93-1.9-5.14-3-5.42-2,1.27-4.72,3.95-5.07,4.08-3.94,1.12,2.11-7.11.56-6.2-3.59,6.48-4.86,4.37-.77-5.28-1.69-4.65S777.65,256.13,776.62,256.27Z"/><path class="h" d="M591,104.07c-1.35,4.57-1.49,6.37-4.68,10.06a58.77,58.77,0,0,1-4.85,5.12l2.36-.69s-1.67,1.72-4,4-7.06,5.06-6.49,5,2.58-.74,3.92-1.13c-.38.4-.78.8-1.2,1.22-2.29,1.51-5.46,3.65-5.34,3.69a8.12,8.12,0,0,0,1.69-.2q-1.8,1.65-3.93,3.51c.45-.07,3.8-.93,7.45-1.88-.47.48-.45.47-1.22,1.21s-2.15,1.61-1.69,1.57a37.86,37.86,0,0,0,5.47-2.15,22,22,0,0,0,3.2-2.13l.32-.08a29.9,29.9,0,0,0-2.55,3.54c.89-.22,5-2.72,5-2.57-3.37,5.64-10.07,9.43-9.81,9.43.77,0,4.72-1.08,4.38-.65s-4.55,3.65-6.66,5.2-3,2.07-2.58,2,1.66-.26,3.43-.62a58.65,58.65,0,0,1-6.95,5s2.35-.54,5.25-1.3c-1.81,1.55-3.23,2.58-2.86,2.58s7.18-2.83,7-2.53-2,2.15-2,2.15A54.31,54.31,0,0,0,579,151a4.18,4.18,0,0,1,1.07-.64s-1.9,2.76-1.2,2.41,2.44-.89,2.9-1.14c-1.78,5.55-9.07,8.77-9,8.77l3.22,0s-2,1.41-4.61,3.21-6.12,3.49-5.72,3.53a26.87,26.87,0,0,0,3.17,0,127.08,127.08,0,0,1-11.2,6.35l5.6-1.23c-2.91,1.95-5.52,3.48-4.93,3.42s8.17-2.88,7.78-2.58-3,2.33-2.45,2.41,5.33-2.2,6.87-3.06,1.68-.9,1.68-.9-2.71,3.65-2.19,3.35,5.1-1.9,8.44-5.27c-2.15,4.57-4,6.67-8.38,9.19-3.87,2.23-6,2.84-4.9,2.84s3-.18,3-.18,2.51-.53-3.07,2.74-10.4,5.07-8.94,4.81c1.13-.2,3.09.27,4.52.41-6.48,4.27-11.8,6.43-10.83,6.55a27.28,27.28,0,0,0,4.18-.82c-2.26,1.59-3.83,2.82-3.17,2.79,1.72-.09,8.68-3.61,8.25-3.09s-4.38,3.52-3,3.09,9.8-4.9,9.54-4.38-3.69,4.12-1.8,2.83c1.3-.88,4.26-1.89,6.74-3.19-1,1.25-2.35,2.81-3.91,4.52-1.94,1.14-4,2.26-5.52,3C557.56,202.34,557,203,557,203l1.72.51a47.31,47.31,0,0,1-5.16,3.27c-5,3-8.24,3.78-7.3,3.86s2.84,0,2.41.17-4.73,2.58-4.73,2.58a8.52,8.52,0,0,0,2.13.15c-3.81,2.19-6.48,3.62-5.7,3.55.51-.05,1.84-.17,3.65-.36-2.56,1.21-4.38,2.07-3.83,2.07,1.29,0,7.3-1.38,7.3-1.38s-3,2.24-2.23,2,10.31-3.09,10.31-3.09-1.89,2.58-1.46,2.4,8.16-4.55,8.16-4.55-2.66,3.87-1.46,3.09c.66-.42,4.08-2.8,7-4.87-1,1.36-2.31,3-3.78,4.77a36.66,36.66,0,0,1-4.39,2.73c-2.58,1.24-4,1.72-3.57,1.72s2.32.08,2.32.08a12.44,12.44,0,0,1-3.69,3.23c-2.88,1.89-4.64,2.66-4.34,2.75s2.15-.18,1.76.08-6.32,4.08-6.1,4.08a7.23,7.23,0,0,0,1.91,0c-2.45,1.77-3.5,2.48-2.26,2.29a25.16,25.16,0,0,0,2.67-.72c-1.06,1-1.6,1.61-1.22,1.66,1.46.17,5.93-1.55,5.93-1.55s-1.12,1.72-.6,1.46,5.75-3,5.75-3-.34,2.14.18,1.71,6.27-4.89,6.27-4.89l1.17,1.11c-3,3.2-6,6.37-5.54,6.11a35.5,35.5,0,0,1,4.3-.91c-1,1-1.52,1.63-1.05,1.59,1.21-.08,6.62-1.63,6.62-1.63s-.69,1.72.34,1.29,8.34-3.7,8.34-3.7-.43,2.32.34,2.07,6.53-4.39,6.53-4.39,0,2.58.52,2.15c.12-.1.52-.55,1.07-1.19v13h7.49v-13c.55.64,1,1.09,1.07,1.19.52.43.52-2.15.52-2.15s5.75,4.13,6.53,4.39.34-2.07.34-2.07,7.31,3.27,8.34,3.7.34-1.29.34-1.29,5.41,1.55,6.62,1.63c.47,0-.1-.63-1-1.59a35.5,35.5,0,0,1,4.3.91c.44.26-2.52-2.91-5.54-6.11l1.17-1.11s5.76,4.46,6.27,4.89.18-1.71.18-1.71,5.24,2.75,5.75,3-.6-1.46-.6-1.46,4.47,1.72,5.93,1.55c.38,0-.16-.69-1.22-1.66a25.16,25.16,0,0,0,2.67.72c1.24.19.19-.52-2.26-2.29a7.23,7.23,0,0,0,1.91,0c.22,0-5.71-3.82-6.1-4.08s1.46,0,1.76-.08-1.46-.86-4.34-2.75a12.44,12.44,0,0,1-3.69-3.23s1.85-.08,2.32-.08-1-.48-3.57-1.72a36.66,36.66,0,0,1-4.39-2.73c-1.47-1.75-2.76-3.41-3.78-4.77,3,2.07,6.37,4.45,7,4.87,1.2.78-1.46-3.09-1.46-3.09s7.73,4.38,8.16,4.55-1.46-2.4-1.46-2.4,9.54,2.83,10.31,3.09-2.23-2-2.23-2,6,1.38,7.3,1.38c.55,0-1.27-.86-3.83-2.07,1.81.19,3.14.31,3.65.36.78.07-1.89-1.36-5.7-3.55a8.52,8.52,0,0,0,2.13-.15s-4.3-2.4-4.73-2.58,1.46-.08,2.41-.17-2.32-.86-7.3-3.86a47.31,47.31,0,0,1-5.16-3.27l1.72-.51s-.6-.69-4.13-2.32c-1.53-.72-3.58-1.84-5.52-3-1.56-1.71-2.89-3.27-3.91-4.52,2.48,1.3,5.44,2.31,6.74,3.19,1.89,1.29-1.54-2.32-1.8-2.83s8.16,4,9.54,4.38-2.58-2.58-3-3.09,6.53,3,8.25,3.09c.66,0-.91-1.2-3.17-2.79a27.28,27.28,0,0,0,4.18.82c1-.12-4.35-2.28-10.83-6.55,1.43-.14,3.39-.61,4.52-.41,1.46.26-3.35-1.55-8.94-4.81s-3.07-2.74-3.07-2.74,1.89.18,3,.18-1-.61-4.9-2.84c-4.36-2.52-6.23-4.62-8.38-9.19,3.34,3.37,7.93,5,8.44,5.27s-2.19-3.35-2.19-3.35.13.05,1.68.9,6.36,3.13,6.87,3.06-2.06-2.11-2.45-2.41,7.18,2.51,7.78,2.58-2-1.47-4.93-3.42l5.6,1.23a127.08,127.08,0,0,1-11.2-6.35,26.87,26.87,0,0,0,3.17,0c.4,0-3.05-1.72-5.72-3.53s-4.61-3.21-4.61-3.21l3.22,0s-7.27-3.22-9.05-8.77c.46.25,2.2.78,2.9,1.14s-1.2-2.41-1.2-2.41a4.18,4.18,0,0,1,1.07.64,54.31,54.31,0,0,0,5.39,2.39s-1.85-1.85-2-2.15,6.63,2.53,7,2.53-1-1-2.86-2.58c2.9.76,5.25,1.3,5.25,1.3a58.16,58.16,0,0,1-6.94-5c1.76.36,3,.52,3.42.62s-.48-.43-2.58-2-6.32-4.77-6.66-5.2,3.61.65,4.38.65c.26,0-6.44-3.79-9.81-9.43-.08-.15,4.08,2.35,5,2.57a29.9,29.9,0,0,0-2.55-3.54l.32.08a22,22,0,0,0,3.2,2.13,37.86,37.86,0,0,0,5.47,2.15c.46,0-.92-.83-1.69-1.57s-.75-.73-1.22-1.21c3.65.95,7,1.81,7.45,1.88q-2.13-1.86-3.93-3.51a8.12,8.12,0,0,0,1.69.2c.12,0-3.05-2.18-5.34-3.69-.42-.42-.82-.82-1.2-1.22,1.34.39,3.35,1,3.92,1.13s-4.13-2.67-6.49-5-4-4-4-4l2.36.69a58.77,58.77,0,0,1-4.85-5.12C592.51,110.44,592.37,108.64,591,104.07Z"/><path class="c" d="M356.63,193.23l4.94-2.66c-1.85,5.76-1.81,6.4-7.23,13.25,4-1.26,5.35-1.69,6.86-3.15-2.57,4.88-3.25,5.72-9.78,12.42l7.27-1c-1.87,4.56-7.67,10.4-7.67,10.4a34.35,34.35,0,0,0,14.28-3.91l-.09,8.88,1.3,0,1.31,0-.1-8.88A34.35,34.35,0,0,0,382,222.48s-5.8-5.84-7.66-10.4l7.26,1c-6.53-6.7-7.21-7.54-9.78-12.42,1.51,1.46,2.88,1.89,6.86,3.15-5.42-6.85-5.38-7.49-7.23-13.25l4.94,2.66c-6.11-8.85-7.76-12.68-9.88-18.89C364.39,180.55,362.74,184.38,356.63,193.23Z"/><path class="c" d="M286.54,199.85l4-2.14c-1.5,4.65-1.46,5.17-5.83,10.69,3.21-1,4.31-1.37,5.53-2.54-2.07,3.93-2.62,4.61-7.89,10l5.86-.81c-1.51,3.67-6.18,8.38-6.18,8.38a27.69,27.69,0,0,0,11.51-3.15l-.07,7.16,1.05,0,1.05,0-.07-7.16A27.74,27.74,0,0,0,307,223.44s-4.67-4.71-6.18-8.38l5.86.81c-5.27-5.4-5.82-6.08-7.89-10,1.22,1.17,2.32,1.52,5.54,2.54-4.38-5.52-4.34-6-5.84-10.69l4,2.14c-4.93-7.13-6.26-10.22-8-15.23C292.8,189.63,291.47,192.72,286.54,199.85Z"/><path class="c" d="M139.73,193.9l2.39-1.28c-.89,2.78-.87,3.09-3.49,6.41,1.92-.61,2.58-.82,3.31-1.53-1.24,2.36-1.57,2.77-4.72,6l3.51-.49a21.08,21.08,0,0,1-3.71,5,16.71,16.71,0,0,0,6.91-1.89l-.05,4.29.63,0,.63,0,0-4.29a16.66,16.66,0,0,0,6.9,1.89,21.08,21.08,0,0,1-3.71-5l3.52.49c-3.16-3.24-3.49-3.65-4.73-6,.73.71,1.39.92,3.32,1.53-2.63-3.32-2.6-3.63-3.5-6.41l2.39,1.28a31.12,31.12,0,0,1-4.78-9.13A30.88,30.88,0,0,1,139.73,193.9Z"/><path class="c" d="M472.81,201.21l4.23-2.27c-1.59,4.92-1.55,5.47-6.18,11.33,3.4-1.09,4.57-1.45,5.86-2.7-2.2,4.17-2.78,4.89-8.36,10.61l6.21-.86c-1.6,3.89-6.55,8.89-6.55,8.89a29.48,29.48,0,0,0,12.2-3.35l-.08,7.59,1.11,0,1.12,0-.08-7.59a29.48,29.48,0,0,0,12.2,3.35s-4.95-5-6.55-8.89l6.21.86c-5.58-5.72-6.17-6.44-8.36-10.61,1.29,1.25,2.46,1.61,5.86,2.7-4.63-5.86-4.59-6.41-6.18-11.33l4.23,2.27c-5.22-7.56-6.63-10.83-8.45-16.14C479.44,190.38,478,193.65,472.81,201.21Z"/><path class="c" d="M387.23,186.7c-1.48,3.26-4.14,8.4-4,8.28s2.5-1.51,2.5-1.51-2.06,3.68-2.87,5.19-2.53,3.67-2.31,3.6,3.05-1.62,3.05-1.62L379.23,208l2.35-.55-4.89,6.1,3.27-1s-6.47,8.16-6.28,8.08,2.68-1.35,2.68-1.35l-3.9,6.21,4.41-2.14-2.27,2.76,7.64-2.83-1.29,2,4.92-1.26v4.42h2.72V224l4.92,1.26-1.29-2,7.65,2.83-2.28-2.76,4.41,2.14-3.9-6.21s2.5,1.28,2.69,1.35-6.29-8.08-6.29-8.08l3.27,1-4.88-6.1,2.35.55-4.41-7.35s2.83,1.55,3.05,1.62-1.51-2.1-2.32-3.6-2.86-5.19-2.86-5.19,2.27,1.36,2.49,1.51S388.71,190,387.23,186.7Z"/><path class="c" d="M469,201.36c-1.1,2.43-3.09,6.25-2.95,6.16s1.86-1.12,1.86-1.12-1.53,2.74-2.14,3.86-1.88,2.74-1.72,2.68,2.27-1.2,2.27-1.2L463,217.21l1.75-.41-3.64,4.55,2.43-.74s-4.81,6.08-4.68,6,2-1,2-1l-2.9,4.63,3.29-1.59-1.7,2.05,5.69-2.11-1,1.51,3.67-.94v3.29h2v-3.29l3.67.94-1-1.51,5.69,2.11-1.69-2.05,3.28,1.59-2.9-4.63s1.86,1,2,1-4.68-6-4.68-6l2.43.74-3.64-4.55,1.75.41-3.28-5.47s2.11,1.15,2.27,1.2-1.12-1.56-1.72-2.68-2.14-3.86-2.14-3.86,1.7,1,1.86,1.12S470.1,203.79,469,201.36Z"/><path class="c" d="M255.13,180.07c-1.29,2.85-3.61,7.33-3.45,7.22s2.18-1.31,2.18-1.31-1.8,3.2-2.5,4.51-2.21,3.2-2,3.14,2.66-1.41,2.66-1.41l-3.84,6.41,2.05-.48L246,203.46l2.85-.86s-5.64,7.11-5.48,7,2.34-1.18,2.34-1.18l-3.4,5.41,3.85-1.86-2,2.4,6.66-2.46-1.12,1.76,4.29-1.1v3.85h2.37v-3.85l4.28,1.1L259.48,212l6.66,2.46-2-2.4,3.84,1.86-3.39-5.41s2.17,1.12,2.33,1.18-5.47-7-5.47-7l2.85.86-4.26-5.31,2.05.48-3.85-6.41s2.47,1.35,2.66,1.41-1.31-1.82-2-3.14-2.5-4.51-2.5-4.51l2.18,1.31C258.74,187.4,256.42,182.92,255.13,180.07Z"/></svg>