<?xml version="1.0" encoding="utf-8"?>
<!-- Generator: Adobe Illustrator 16.0.0, SVG Export Plug-In . SVG Version: 6.00 Build 0)  -->
<!DOCTYPE svg PUBLIC "-//W3C//DTD SVG 1.1//EN" "http://www.w3.org/Graphics/SVG/1.1/DTD/svg11.dtd">
<svg version="1.1" id="Layer_1" xmlns="http://www.w3.org/2000/svg" xmlns:xlink="http://www.w3.org/1999/xlink" x="0px" y="0px"
	 width="100px" height="100px" viewBox="0 0 100 100" enable-background="new 0 0 100 100" xml:space="preserve">
<g>
	<g>
		<path fill="#B6DBE4" d="M50,4c6.212,0,12.235,1.216,17.904,3.613c5.478,2.317,10.397,5.634,14.623,9.86
			c4.226,4.226,7.543,9.146,9.86,14.623C94.784,37.765,96,43.788,96,50s-1.216,12.235-3.613,17.904
			c-2.316,5.477-5.634,10.397-9.86,14.623c-4.226,4.226-9.146,7.543-14.623,9.86C62.235,94.784,56.212,96,50,96
			s-12.235-1.216-17.904-3.613c-5.477-2.316-10.397-5.634-14.623-9.86c-4.226-4.226-7.543-9.146-9.86-14.623
			C5.216,62.235,4,56.212,4,50s1.216-12.235,3.613-17.904c2.316-5.478,5.634-10.397,9.86-14.623
			c4.226-4.226,9.146-7.543,14.623-9.86C37.765,5.216,43.788,4,50,4 M50,0C22.386,0,0,22.386,0,50s22.386,50,50,50s50-22.386,50-50
			S77.614,0,50,0L50,0z"/>
	</g>
	<g id="Page_1">
		<g id="Layer_1_1_">
			<path id="CSS" fill="#6D6E71" d="M64.64,16.269h-4.284l4.455,4.834v2.301h-9.177V20.71h4.455l-4.455-4.834v-2.305h9.005V16.269
				L64.64,16.269z M53.816,16.269h-4.284l4.455,4.834v2.301h-9.176V20.71h4.455l-4.455-4.834v-2.305h9.005V16.269L53.816,16.269z
				 M43.098,16.378h-4.623v4.219h4.623v2.807h-7.908v-9.833h7.908V16.378L43.098,16.378z"/>
			<g>
				<path id="Outside" fill="#6D6E71" d="M24.193,27.893l4.697,52.686l21.078,5.851l21.137-5.859l4.702-52.677H24.193z
					 M67.08,77.215L50,81.95v-7.152l-13.228-3.672L35.868,60.98h2.989h3.497l0.46,5.153L50,68.075V57.75h0v0.001h-7.084h-0.021
					l-0.129-1.453l-0.295-3.275l-0.154-1.734H50v0h0v-6.617h0H34.436h-0.021l-0.129-1.452l-0.294-3.276l-0.155-1.734H50h0v-6.009
					h21.097L67.08,77.215z"/>
				<polygon id="Right_Inside_2_" fill="#A7A9AC" points="50,38.209 50.022,38.209 66.203,38.209 66.048,39.943 64.484,57.476 
					64.484,57.476 64.482,57.502 64.46,57.75 64.46,57.75 63.36,70.034 63.263,71.126 50.039,74.791 50.039,74.792 50.009,74.8 
					50,74.798 50,81.95 67.08,77.215 71.098,32.201 50,32.201 				"/>
				<polygon id="Right_Inside_1_" fill="#A7A9AC" points="50.017,68.075 50.017,68.075 57.223,66.129 57.977,57.75 50,57.75 
					50,68.075 50.011,68.077 				"/>
				<polygon id="Right_Inside" fill="#A7A9AC" points="59.141,44.671 50.022,44.671 50,44.671 50,51.288 58.55,51.288 				"/>
				<polygon id="Left_3_2_" opacity="0.2" points="42.814,66.134 42.354,60.98 38.857,60.98 35.868,60.98 36.773,71.126 50,74.798 
					50,68.075 				"/>
				<polygon id="Left_3_1_" opacity="0.2" points="33.836,38.209 33.991,39.943 34.285,43.219 34.415,44.671 34.436,44.671 
					50,44.671 50,38.209 				"/>
				<polygon id="Left_3" opacity="0.2" points="50,55.302 50,51.289 42.316,51.289 42.471,53.022 42.766,56.298 42.895,57.75 
					42.916,57.75 50,57.75 50,57.75 50,57.735 				"/>
			</g>
		</g>
	</g>
</g>
<g>
</g>
<g>
</g>
<g>
</g>
<g>
</g>
<g>
</g>
<g>
</g>
</svg>
