<?xml version="1.0" encoding="utf-8"?>
<!-- Generator: Adobe Illustrator 16.0.0, SVG Export Plug-In . SVG Version: 6.00 Build 0)  -->
<!DOCTYPE svg PUBLIC "-//W3C//DTD SVG 1.1//EN" "http://www.w3.org/Graphics/SVG/1.1/DTD/svg11.dtd">
<svg version="1.1" id="Layer_1" xmlns="http://www.w3.org/2000/svg" xmlns:xlink="http://www.w3.org/1999/xlink" x="0px" y="0px"
	 width="100px" height="100px" viewBox="0 0 100 100" enable-background="new 0 0 100 100" xml:space="preserve">
<g>
	<g>
		<path fill="#B6DBE4" d="M50,4c6.212,0,12.235,1.216,17.904,3.613c5.478,2.317,10.397,5.634,14.623,9.86
			c4.226,4.226,7.543,9.146,9.86,14.623C94.784,37.765,96,43.788,96,50s-1.216,12.235-3.613,17.904
			c-2.316,5.477-5.634,10.397-9.86,14.623c-4.226,4.226-9.146,7.543-14.623,9.86C62.235,94.784,56.212,96,50,96
			s-12.235-1.216-17.904-3.613c-5.477-2.316-10.397-5.634-14.623-9.86c-4.226-4.226-7.543-9.146-9.86-14.623
			C5.216,62.235,4,56.212,4,50s1.216-12.235,3.613-17.904c2.316-5.478,5.634-10.397,9.86-14.623
			c4.226-4.226,9.146-7.543,14.623-9.86C37.765,5.216,43.788,4,50,4 M50,0C22.386,0,0,22.386,0,50s22.386,50,50,50s50-22.386,50-50
			S77.614,0,50,0L50,0z"/>
	</g>
	<g>
		<path fill-rule="evenodd" clip-rule="evenodd" fill="#6D6E71" d="M40.867,69.021c0,0-2.658,1.546,1.893,2.069
			c5.515,0.63,8.333,0.539,14.408-0.61c0,0,1.6,1.001,3.832,1.868C47.376,78.185,30.167,72.01,40.867,69.021L40.867,69.021z"/>
		<path fill-rule="evenodd" clip-rule="evenodd" fill="#6D6E71" d="M39.202,61.403c0,0-2.982,2.207,1.573,2.678
			c5.891,0.608,10.542,0.658,18.594-0.892c0,0,1.111,1.128,2.861,1.746C45.761,69.751,27.418,65.313,39.202,61.403L39.202,61.403z"
			/>
		<path fill-rule="evenodd" clip-rule="evenodd" fill="#A7A9AC" d="M53.234,48.479c3.358,3.866-0.881,7.342-0.881,7.342
			s8.523-4.399,4.61-9.91c-3.656-5.137-6.459-7.689,8.716-16.49C65.679,29.421,41.858,35.369,53.234,48.479L53.234,48.479z"/>
		<path fill-rule="evenodd" clip-rule="evenodd" fill="#6D6E71" d="M71.251,74.656c0,0,1.967,1.622-2.167,2.876
			c-7.862,2.381-32.727,3.099-39.633,0.095c-2.481-1.081,2.174-2.578,3.638-2.895c1.527-0.33,2.399-0.27,2.399-0.27
			c-2.761-1.944-17.846,3.818-7.662,5.472C55.601,84.436,78.455,77.906,71.251,74.656L71.251,74.656z"/>
		<path fill-rule="evenodd" clip-rule="evenodd" fill="#6D6E71" d="M42.146,53.509c0,0-12.646,3.004-4.478,4.096
			c3.45,0.462,10.323,0.355,16.73-0.182c5.234-0.439,10.488-1.379,10.488-1.379s-1.845,0.792-3.18,1.703
			c-12.844,3.378-37.653,1.805-30.51-1.649C37.234,53.177,42.146,53.509,42.146,53.509L42.146,53.509z"/>
		<path fill-rule="evenodd" clip-rule="evenodd" fill="#6D6E71" d="M64.833,66.189c13.057-6.783,7.019-13.302,2.805-12.424
			c-1.03,0.215-1.493,0.402-1.493,0.402s0.384-0.602,1.115-0.86c8.336-2.929,14.746,8.643-2.688,13.226
			C64.572,66.532,64.773,66.35,64.833,66.189L64.833,66.189z"/>
		<path fill-rule="evenodd" clip-rule="evenodd" fill="#A7A9AC" d="M56.963,15.208c0,0,7.229,7.233-6.859,18.353
			c-11.297,8.923-2.576,14.009-0.004,19.823c-6.595-5.95-11.433-11.188-8.188-16.063C46.677,30.166,59.879,26.696,56.963,15.208
			L56.963,15.208z"/>
		<path fill-rule="evenodd" clip-rule="evenodd" fill="#6D6E71" d="M43.43,84.574c12.53,0.801,31.775-0.445,32.231-6.375
			c0,0-0.875,2.247-10.356,4.031c-10.695,2.014-23.89,1.779-31.713,0.488C33.592,82.718,35.195,84.044,43.43,84.574L43.43,84.574z"
			/>
	</g>
</g>
<g>
</g>
<g>
</g>
<g>
</g>
<g>
</g>
<g>
</g>
<g>
</g>
</svg>
