<?xml version="1.0" encoding="utf-8"?>
<!-- Generator: Adobe Illustrator 21.1.0, SVG Export Plug-In . SVG Version: 6.00 Build 0)  -->
<svg version="1.1" id="Layer_1" xmlns="http://www.w3.org/2000/svg" xmlns:xlink="http://www.w3.org/1999/xlink" x="0px" y="0px"
	 viewBox="0 0 500 451.39" enable-background="new 0 0 500 451.39" xml:space="preserve">
<g>
	<path fill="#CC0000" d="M85.411,350.126H14.706C6.584,350.126,0,343.542,0,335.42V14.706C0,6.584,6.584,0,14.706,0h470.588
		C493.416,0,500,6.584,500,14.706V335.42c0,8.122-6.584,14.706-14.706,14.706h-258.65L85.411,451.39V350.126z"/>
	<g>
		<polygon fill="#FFFFFF" points="138.567,285.875 25.283,172.591 138.567,59.307 167.534,88.275 83.218,172.591 167.534,256.908 		
			"/>
		<polygon fill="#FFFFFF" points="361.432,285.875 332.465,256.908 416.781,172.591 332.465,88.274 361.432,59.307 474.717,172.591 
					"/>
		
			<rect x="121.955" y="153.48" transform="matrix(0.2526 -0.9676 0.9676 0.2526 19.3794 370.2708)" fill="#FFFFFF" width="254.817" height="38.223"/>
	</g>
</g>
<g>
</g>
<g>
</g>
<g>
</g>
<g>
</g>
<g>
</g>
<g>
</g>
<g>
</g>
<g>
</g>
<g>
</g>
<g>
</g>
<g>
</g>
<g>
</g>
<g>
</g>
<g>
</g>
<g>
</g>
</svg>
