<?xml version="1.0" encoding="utf-8"?>
<!-- Generator: Adobe Illustrator 23.0.2, SVG Export Plug-In . SVG Version: 6.00 Build 0)  -->
<svg version="1.1" id="Layer_1" xmlns="http://www.w3.org/2000/svg" xmlns:xlink="http://www.w3.org/1999/xlink" x="0px" y="0px"
	 viewBox="0 0 303.65 350.62" style="enable-background:new 0 0 303.65 350.62;" xml:space="preserve">
<style type="text/css">
	.st0{fill:none;stroke:#636363;stroke-width:22.3034;stroke-miterlimit:10;}
	.st1{fill:#FFFFFF;}
	.st2{fill:none;stroke:#2D2D2D;stroke-width:8.9214;stroke-miterlimit:10;}
	.st3{fill:#2D2D2D;stroke:#2D2D2D;stroke-width:1.3382;stroke-miterlimit:10;}
	.st4{fill:#3A3A3A;stroke:#303030;stroke-width:1.7843;}
	.st5{fill:#3A3A3A;stroke:#303030;stroke-width:1.7843;stroke-miterlimit:10;}
	.st6{fill-rule:evenodd;clip-rule:evenodd;fill:#CA2128;}
	.st7{fill:#CA2128;}
	.st8{fill:#3A3A3A;stroke:#303030;stroke-width:1.3382;stroke-miterlimit:10;}
	.st9{fill:#3A3A3A;stroke:#303030;stroke-width:1.3382;}
</style>
<g>
	<g>
		<g>
			<polygon class="st0" points="151.82,12.88 11.15,94.09 11.15,256.53 151.82,337.75 292.5,256.53 292.5,94.09 			"/>
			<polygon class="st1" points="151.82,12.88 11.15,94.09 11.15,256.53 151.82,337.75 292.5,256.53 292.5,94.09 			"/>
			<polygon class="st2" points="151.82,12.88 11.15,94.09 11.15,256.53 151.82,337.75 292.5,256.53 292.5,94.09 			"/>
		</g>
		<g>
			<path class="st3" d="M42.65,104.27v12.21c0,1.35-0.59,2.11-2.11,2.11s-2.11-0.76-2.11-2.11V87.84c0-1.35,0.59-2.11,2.11-2.11
				s2.11,0.76,2.11,2.11v12.21h12.42V87.84c0-1.35,0.59-2.11,2.11-2.11s2.11,0.76,2.11,2.11v28.64c0,1.35-0.59,2.11-2.11,2.11
				s-2.11-0.76-2.11-2.11v-12.21H42.65z"/>
			<path class="st3" d="M79.65,87.88c0.34-1.14,0.8-2.15,2.15-2.15c1.39,0,1.9,1.06,2.2,2.15l8.15,28.59
				c0.3,1.01-0.84,2.11-2.03,2.11c-1.31,0-1.98-1.1-2.28-2.11l-1.56-5.07h-9l-1.6,5.07c-0.3,1.01-0.97,2.11-2.28,2.11
				c-1.18,0-2.32-1.1-2.03-2.11L79.65,87.88z M81.85,95.74h-0.08l-3.29,11.45h6.63L81.85,95.74z"/>
			<path class="st3" d="M115.67,118.59c-3.17,0-4.98-1.27-6.34-4.01l-3.89-7.86c-0.72-1.44-1.14-2.79-1.14-4.43
				c0-1.86,0.34-3,1.18-4.69l3.89-7.81c1.44-2.92,3.25-4.05,6.5-4.05h7.18c0.93,0,2.11,0.51,2.11,2.11c0,1.52-1.14,2.11-2.11,2.11
				h-7.05c-1.82,0-2.11,0.17-2.91,1.77l-3.67,7.35c-0.55,1.14-0.89,1.9-0.89,3.21c0,1.18,0.38,1.9,0.89,2.91l3.59,7.31
				c0.84,1.73,1.27,1.86,3.17,1.86h6.88c0.93,0,2.11,0.51,2.11,2.11c0,1.52-1.14,2.11-2.11,2.11H115.67z"/>
			<path class="st3" d="M137.25,87.84c0-1.35,0.59-2.11,2.11-2.11s2.11,0.76,2.11,2.11v9.71l12.88-10.94
				c0.51-0.42,1.06-0.84,1.73-0.84c1.22,0,2.03,1.01,2.03,2.2c0,0.72-0.46,1.31-0.97,1.77l-14.57,12.42l14.49,12.42
				c0.55,0.46,1.06,1.06,1.06,1.82c0,1.18-0.8,2.2-2.03,2.2c-0.89,0-1.6-0.76-2.28-1.27l-12.33-10.6v9.76
				c0,1.35-0.59,2.11-2.11,2.11s-2.11-0.76-2.11-2.11V87.84z"/>
		</g>
		<g>
			<path class="st3" d="M183.21,90.28v1.52c0,1.35-0.59,2.11-2.11,2.11s-2.11-0.76-2.11-2.11v-5.74h20.87v5.74
				c0,1.35-0.59,2.11-2.11,2.11s-2.11-0.76-2.11-2.11v-1.52h-4.1v26.53c0,1.35-0.59,2.11-2.11,2.11s-2.11-0.76-2.11-2.11V90.28
				H183.21z"/>
			<path class="st3" d="M215.94,104.6v12.21c0,1.35-0.59,2.11-2.11,2.11s-2.11-0.76-2.11-2.11V88.17c0-1.35,0.59-2.11,2.11-2.11
				s2.11,0.76,2.11,2.11v12.21h12.42V88.17c0-1.35,0.59-2.11,2.11-2.11s2.11,0.76,2.11,2.11v28.64c0,1.35-0.59,2.11-2.11,2.11
				s-2.11-0.76-2.11-2.11V104.6H215.94z"/>
			<path class="st3" d="M263.2,114.69c1.1,0,2.11,0.59,2.11,2.11c0,1.52-1.01,2.11-2.11,2.11h-18.75V86.05h18.75
				c1.1,0,2.11,0.59,2.11,2.11s-1.01,2.11-2.11,2.11h-14.53v10.09h6.21c1.1,0,2.11,0.59,2.11,2.11s-1.01,2.11-2.11,2.11h-6.21v10.09
				H263.2z"/>
		</g>
		<g>
			<line class="st4" x1="52.1" y1="179.6" x2="185.27" y2="220.64"/>
			<line class="st4" x1="192.8" y1="213.43" x2="159.72" y2="200.38"/>
			<line class="st4" x1="167.37" y1="237.78" x2="248.81" y2="175.1"/>
			<line class="st4" x1="22.57" y1="214.65" x2="49.78" y2="179.6"/>
			<line class="st4" x1="248.81" y1="175.1" x2="277.61" y2="216.2"/>
			<ellipse class="st5" cx="52.1" cy="179.6" rx="9.44" ry="9.49"/>
			<ellipse class="st5" cx="22.57" cy="214.65" rx="3.27" ry="3.29"/>
			<ellipse class="st5" cx="278.5" cy="217.94" rx="6.63" ry="6.67"/>
			<ellipse class="st5" cx="248.81" cy="175.1" rx="3.3" ry="3.32"/>
			<line class="st4" x1="145.8" y1="208.47" x2="159.72" y2="200.38"/>
			<ellipse class="st5" cx="159.72" cy="200.38" rx="1.65" ry="1.66"/>
		</g>
		<g>
			<g>
				<polygon class="st6" points="65.7,127.84 65.7,174.92 81.4,174.92 81.4,253.19 112.79,284.37 190.86,284.37 222.25,253.19 
					222.25,174.92 237.94,174.92 237.94,127.84 159.67,127.84 159.67,174.92 175.37,174.92 175.37,237.3 128.29,237.3 
					128.29,174.92 143.98,174.92 143.98,127.84 				"/>
			</g>
			<g>
				<path class="st7" d="M223.12,276.83c0,3.41-2.77,6.15-6.29,6.15c-3.52,0-6.33-2.74-6.33-6.15c0-3.38,2.81-6.12,6.33-6.12
					C220.34,270.72,223.12,273.46,223.12,276.83z M212.38,276.87c0,2.56,1.88,4.59,4.44,4.59c2.56,0,4.44-2.03,4.44-4.62
					c0-2.52-1.88-4.59-4.48-4.59C214.26,272.25,212.38,274.31,212.38,276.87z M216.04,279.75h-1.74v-5.65
					c0.39-0.07,1.32-0.18,2.49-0.18c1.28,0,1.85,0.18,2.28,0.43c0.36,0.25,0.6,0.68,0.6,1.24c0,0.57-0.53,1.07-1.32,1.28v0.07
					c0.64,0.21,1,0.64,1.17,1.46c0.18,0.82,0.29,1.14,0.39,1.35h-1.96c-0.18-0.21-0.28-0.71-0.39-1.21
					c-0.11-0.57-0.39-0.85-0.96-0.85h-0.57V279.75z M216.11,276.51h0.5c0.64,0,1.07-0.25,1.07-0.68c0-0.46-0.39-0.71-1-0.71
					c-0.21,0-0.43,0.04-0.57,0.04V276.51z"/>
			</g>
		</g>
		<g>
			<circle class="st8" cx="197.31" cy="290.59" r="3.27"/>
			<line class="st9" x1="128.93" y1="224.12" x2="197.31" y2="290.59"/>
			<line class="st9" x1="64.68" y1="260.63" x2="128.93" y2="224.12"/>
			<line class="st9" x1="254.94" y1="243.1" x2="208.21" y2="224.12"/>
			<circle class="st8" cx="254.94" cy="243.1" r="4.4"/>
			<line class="st9" x1="166.49" y1="260.63" x2="208.21" y2="224.12"/>
			<circle class="st8" cx="208.35" cy="224.18" r="1.64"/>
			<circle class="st8" cx="128.93" cy="224.12" r="5.36"/>
			<circle class="st8" cx="64.68" cy="260.63" r="4.36"/>
		</g>
	</g>
</g>
<g>
</g>
<g>
</g>
<g>
</g>
<g>
</g>
<g>
</g>
<g>
</g>
</svg>
