<?xml version="1.0" encoding="utf-8"?>
<!-- Generator: Adobe Illustrator 16.0.0, SVG Export Plug-In . SVG Version: 6.00 Build 0)  -->
<!DOCTYPE svg PUBLIC "-//W3C//DTD SVG 1.1//EN" "http://www.w3.org/Graphics/SVG/1.1/DTD/svg11.dtd">
<svg version="1.1" id="Layer_1" xmlns="http://www.w3.org/2000/svg" xmlns:xlink="http://www.w3.org/1999/xlink" x="0px" y="0px"
	 width="100px" height="100px" viewBox="0 0 100 100" enable-background="new 0 0 100 100" xml:space="preserve">
<g>
	<path fill="#B6DBE4" d="M50,4c6.212,0,12.235,1.216,17.904,3.613c5.478,2.317,10.397,5.634,14.623,9.86
		c4.226,4.226,7.543,9.146,9.86,14.623C94.784,37.765,96,43.788,96,50s-1.216,12.235-3.613,17.904
		c-2.316,5.477-5.634,10.397-9.86,14.623c-4.226,4.226-9.146,7.543-14.623,9.86C62.235,94.784,56.212,96,50,96
		s-12.235-1.216-17.904-3.613c-5.477-2.316-10.397-5.634-14.623-9.86c-4.226-4.226-7.543-9.146-9.86-14.623
		C5.216,62.235,4,56.212,4,50s1.216-12.235,3.613-17.904c2.316-5.478,5.634-10.397,9.86-14.623c4.226-4.226,9.146-7.543,14.623-9.86
		C37.765,5.216,43.788,4,50,4 M50,0C22.386,0,0,22.386,0,50s22.386,50,50,50s50-22.386,50-50S77.614,0,50,0L50,0z"/>
	<g>
		<g>
			<path fill="#6D6E71" d="M28.883,13.568h3.292v3.253h3.012v-3.253h3.293v9.851h-3.293V20.12h-3.012v3.299h-3.292V13.568z"/>
			<path fill="#6D6E71" d="M42.809,16.835H39.91v-3.267h9.091v3.267h-2.899v6.584h-3.292V16.835L42.809,16.835z"/>
			<path fill="#6D6E71" d="M50.445,13.568h3.433l2.112,3.461l2.11-3.461h3.435v9.851h-3.279v-4.882l-2.265,3.502h-0.057
				l-2.267-3.502v4.882h-3.221V13.568z"/>
			<path fill="#6D6E71" d="M63.173,13.568h3.293v6.595h4.63v3.256h-7.924V13.568z"/>
		</g>
		<path fill="#6D6E71" d="M41.446,51.65H50v-6.635h-9.146L41.446,51.65z M24.137,27.738l4.71,52.825l21.141,5.868l21.16-5.866
			l4.716-52.828H24.137z M67.11,77.203L50,81.946v-6.724l-0.011,0.003l-13.271-3.684L35.79,61.139h6.504l0.482,5.397l7.215,1.949
			L50,68.481V58.129H35.521l-1.748-19.592H50v-6.479h21.141L67.11,77.203z"/>
		<path fill="#A7A9AC" enable-background="new    " d="M57.975,58.129H50v10.353l7.223-1.95L57.975,58.129z M50,32.058v6.479h16.227
			l-0.581,6.479H50v6.635h15.057l-1.777,19.892L50,75.223v6.724l17.11-4.744l4.03-45.145H50L50,32.058z"/>
		<g opacity="0.2">
			<polygon points="50,38.537 33.773,38.537 35.521,58.129 50,58.129 50,51.65 41.446,51.65 40.854,45.016 50,45.016 			"/>
			<polygon points="50,68.481 49.991,68.484 42.775,66.536 42.293,61.139 35.79,61.139 36.718,71.542 49.989,75.226 50,75.223 			
				"/>
		</g>
	</g>
</g>
<g>
</g>
<g>
</g>
<g>
</g>
<g>
</g>
<g>
</g>
<g>
</g>
</svg>
