<?xml version="1.0" encoding="utf-8"?>
<!-- Generator: Adobe Illustrator 16.0.0, SVG Export Plug-In . SVG Version: 6.00 Build 0)  -->
<!DOCTYPE svg PUBLIC "-//W3C//DTD SVG 1.1//EN" "http://www.w3.org/Graphics/SVG/1.1/DTD/svg11.dtd">
<svg version="1.1" id="Layer_1" xmlns="http://www.w3.org/2000/svg" xmlns:xlink="http://www.w3.org/1999/xlink" x="0px" y="0px"
	 width="100px" height="100px" viewBox="0 0 100 100" enable-background="new 0 0 100 100" xml:space="preserve">
<g>
	<g>
		<path fill="#B6DBE4" d="M50,4c6.212,0,12.235,1.216,17.904,3.613c5.478,2.317,10.397,5.634,14.623,9.86
			c4.226,4.226,7.543,9.146,9.86,14.623C94.784,37.765,96,43.788,96,50s-1.216,12.235-3.613,17.904
			c-2.316,5.477-5.634,10.397-9.86,14.623c-4.226,4.226-9.146,7.543-14.623,9.86C62.235,94.784,56.212,96,50,96
			s-12.235-1.216-17.904-3.613c-5.477-2.316-10.397-5.634-14.623-9.86c-4.226-4.226-7.543-9.146-9.86-14.623
			C5.216,62.235,4,56.212,4,50s1.216-12.235,3.613-17.904c2.316-5.478,5.634-10.397,9.86-14.623
			c4.226-4.226,9.146-7.543,14.623-9.86C37.765,5.216,43.788,4,50,4 M50,0C22.386,0,0,22.386,0,50s22.386,50,50,50s50-22.386,50-50
			S77.614,0,50,0L50,0z"/>
	</g>
	<g transform="translate(-44.63166,-445.54704)">
		<g transform="matrix(2,0,0,2,-140.15749,-493.22304)">
			<path fill="#6D6E71" d="M101.543,488.904h5.586c1.64,0.014,2.828,0.486,3.564,1.417c0.737,0.931,0.98,2.203,0.729,3.814
				c-0.097,0.736-0.313,1.459-0.646,2.167c-0.32,0.708-0.764,1.348-1.334,1.917c-0.695,0.723-1.438,1.181-2.23,1.375
				c-0.792,0.195-1.612,0.292-2.459,0.292h-2.501l-0.792,3.96h-2.897L101.543,488.904L101.543,488.904 M103.981,491.28l-1.25,6.252
				c0.083,0.014,0.167,0.021,0.25,0.021c0.097,0,0.194,0,0.292,0c1.334,0.014,2.445-0.118,3.335-0.396
				c0.889-0.292,1.487-1.306,1.792-3.043c0.25-1.459,0-2.3-0.75-2.522c-0.736-0.222-1.66-0.327-2.772-0.313
				c-0.167,0.014-0.326,0.021-0.479,0.021c-0.139,0-0.285,0-0.438,0L103.981,491.28"/>
			<path fill="#6D6E71" d="M114.722,484.923h2.876l-0.813,3.981h2.585c1.417,0.028,2.473,0.32,3.168,0.875
				c0.709,0.556,0.917,1.612,0.625,3.168l-1.396,6.94h-2.918l1.334-6.628c0.139-0.695,0.097-1.188-0.125-1.48
				c-0.222-0.292-0.702-0.438-1.438-0.438l-2.313-0.021l-1.709,8.566h-2.876L114.722,484.923L114.722,484.923"/>
			<path fill="#6D6E71" d="M126.252,488.904h5.586c1.639,0.014,2.828,0.486,3.564,1.417c0.737,0.931,0.979,2.203,0.729,3.814
				c-0.097,0.736-0.313,1.459-0.646,2.167c-0.32,0.708-0.764,1.348-1.334,1.917c-0.695,0.723-1.438,1.181-2.23,1.375
				c-0.792,0.195-1.612,0.292-2.459,0.292h-2.501l-0.792,3.96h-2.897L126.252,488.904L126.252,488.904 M128.691,491.28l-1.251,6.252
				c0.083,0.014,0.167,0.021,0.25,0.021c0.097,0,0.195,0,0.292,0c1.334,0.014,2.446-0.118,3.335-0.396
				c0.889-0.292,1.487-1.306,1.792-3.043c0.25-1.459,0-2.3-0.75-2.522c-0.736-0.222-1.66-0.327-2.772-0.313
				c-0.167,0.014-0.327,0.021-0.479,0.021c-0.139,0-0.285,0-0.438,0L128.691,491.28"/>
		</g>
	</g>
</g>
<g>
</g>
<g>
</g>
<g>
</g>
<g>
</g>
<g>
</g>
<g>
</g>
</svg>
